<svg width="24" height="24" viewBox="0 0 24 24" fill="none" xmlns="http://www.w3.org/2000/svg">
<path d="M7.0476 6.56778H8.52264V5.33177H15.4289V6.59369H16.9037V4.42289H16.9032C16.9019 4.26588 16.8387 4.11572 16.7275 4.00493C16.6162 3.89415 16.4657 3.83168 16.3087 3.83105H7.64136C7.48304 3.83112 7.33122 3.89406 7.21929 4.00603C7.10736 4.11801 7.04448 4.26985 7.04448 4.42817C7.04448 4.43897 7.04712 4.44881 7.0476 4.45961V6.56778Z" fill="#092C4C"/>
<path d="M5.94528 20.1686H18.0499V7.88086H5.94528V20.1686ZM8.34168 13.164C8.34301 13.1155 8.36286 13.0694 8.39714 13.0351C8.43143 13.0008 8.47754 12.981 8.526 12.9797L10.9824 12.9799V10.5235C10.9824 10.4217 11.065 10.3392 11.1667 10.3392H12.8875C12.9893 10.3392 13.0718 10.4217 13.0718 10.5237V12.9799H15.5285C15.6302 12.9799 15.7128 13.0625 15.7128 13.1642V14.885C15.7129 14.9092 15.7081 14.9332 15.6989 14.9556C15.6897 14.978 15.6761 14.9984 15.659 15.0155C15.6418 15.0326 15.6215 15.0462 15.5991 15.0554C15.5767 15.0647 15.5527 15.0694 15.5285 15.0693H13.0718V17.526C13.0719 17.5502 13.0671 17.5742 13.0579 17.5966C13.0486 17.6189 13.035 17.6393 13.0179 17.6564C13.0008 17.6735 12.9805 17.6871 12.9581 17.6963C12.9357 17.7056 12.9117 17.7103 12.8875 17.7103H11.167C11.1427 17.7103 11.1188 17.7056 11.0964 17.6963C11.074 17.6871 11.0537 17.6735 11.0366 17.6564C11.0194 17.6393 11.0059 17.6189 10.9966 17.5966C10.9874 17.5742 10.9826 17.5502 10.9826 17.526V15.0691H8.526C8.50179 15.0691 8.47781 15.0644 8.45543 15.0551C8.43305 15.0459 8.41272 15.0323 8.3956 15.0152C8.37848 14.9981 8.3649 14.9777 8.35565 14.9554C8.3464 14.933 8.34165 14.909 8.34168 14.8848V13.164Z" fill="#092C4C"/>
<path d="M3.32041 7.8811C3.19442 7.88104 3.06966 7.9058 2.95325 7.95396C2.83684 8.00213 2.73106 8.07276 2.64195 8.16183C2.55285 8.25089 2.48216 8.35663 2.43393 8.47302C2.38571 8.58941 2.36089 8.71416 2.36089 8.84014C2.36089 8.85286 2.36401 8.86462 2.36473 8.8771V19.1827C2.36449 19.1911 2.36233 19.1988 2.36233 19.2072C2.36252 19.4614 2.4635 19.7052 2.64315 19.885C2.82279 20.0649 3.06643 20.1662 3.32065 20.1667V20.1686H4.75081V7.88086L3.32041 7.8811Z" fill="#092C4C"/>
<path d="M21.6384 19.2014V8.83534H21.6338C21.6324 8.58188 21.5308 8.33926 21.3512 8.16043C21.1716 7.98161 20.9285 7.88111 20.675 7.88086H19.2449V20.1686H20.6712V20.1679C20.6741 20.1679 20.6767 20.1686 20.6796 20.1686C20.8056 20.1687 20.9304 20.1439 21.0468 20.0956C21.1633 20.0474 21.269 19.9768 21.3582 19.8877C21.4473 19.7985 21.5179 19.6928 21.5661 19.5763C21.6144 19.4599 21.6392 19.3351 21.6391 19.2091C21.6391 19.2067 21.6384 19.2041 21.6384 19.2014Z" fill="#092C4C"/>
</svg>
