<svg width="24" height="24" viewBox="0 0 24 24" fill="none" xmlns="http://www.w3.org/2000/svg">
<path d="M11.859 6.52328C12.285 6.52979 12.7081 6.4515 13.1035 6.29298C13.499 6.13445 13.859 5.89885 14.1626 5.59988C14.4662 5.30091 14.7072 4.94456 14.8718 4.55155C15.0363 4.15854 15.1211 3.73672 15.1211 3.31066C15.1211 2.88459 15.0363 2.46277 14.8718 2.06977C14.7072 1.67676 14.4662 1.3204 14.1626 1.02143C13.859 0.722467 13.499 0.486865 13.1035 0.328337C12.7081 0.169809 12.285 0.0915219 11.859 0.0980313C10.0845 0.0980313 8.64523 1.53653 8.64523 3.31028C8.64543 4.16249 8.98411 4.97973 9.58678 5.58226C10.1895 6.18479 11.0068 6.52328 11.859 6.52328Z" fill="#092C4C"/>
<path d="M16.0984 7.50113H12.3158V10.5011L13.0114 10.6714V9.97575C13.0114 9.52387 13.4231 9.11362 14.1746 9.61875C15.2333 10.3324 16.3729 14.3858 15.1369 14.226C14.5403 14.1499 14.2031 13.8604 13.5461 13.8236C13.0125 13.7962 13.0125 13.5668 13.0118 13.2649C13.011 12.963 13.0118 11.994 13.0118 11.994V11.454C12.7797 11.3982 12.5478 11.3415 12.3161 11.2841V14.994C12.3161 14.994 13.359 14.2849 14.1049 14.8627C14.5751 15.2284 14.8695 16.2806 13.4149 17.1383C13.0793 17.3426 11.2519 17.826 10.6785 16.7498H10.0316C9.89119 16.7498 9.75652 16.8055 9.65721 16.9048C9.55791 17.0041 9.50213 17.1388 9.50213 17.2792C9.50213 17.4197 9.55791 17.5544 9.65721 17.6537C9.75652 17.753 9.89119 17.8088 10.0316 17.8088H13.8623C14.1535 17.8091 14.4326 17.9251 14.6385 18.1311C14.8443 18.337 14.9601 18.6163 14.9603 18.9075C14.9601 19.1986 14.8443 19.4778 14.6384 19.6837C14.4326 19.8896 14.1534 20.0053 13.8623 20.0055H9.8985C9.83638 20.0103 9.77838 20.0384 9.73607 20.0842C9.69376 20.1299 9.67026 20.1899 9.67026 20.2523C9.67026 20.3146 9.69376 20.3746 9.73607 20.4203C9.77838 20.4661 9.83638 20.4942 9.8985 20.499H13.8623C14.4675 20.499 14.9603 20.9918 14.9603 21.5978C14.9603 22.2038 14.4675 22.6957 13.8623 22.6957H9.2265C9.11352 22.6957 9.00517 22.6509 8.92527 22.571C8.84538 22.4911 8.8005 22.3827 8.8005 22.2698C8.8005 22.1568 8.84538 22.0484 8.92527 21.9685C9.00517 21.8886 9.11352 21.8438 9.2265 21.8438H13.8623C13.926 21.8413 13.9863 21.8142 14.0305 21.7682C14.0747 21.7223 14.0994 21.661 14.0994 21.5972C14.0994 21.5334 14.0747 21.4721 14.0305 21.4261C13.9863 21.3802 13.926 21.3531 13.8623 21.3506H9.8985C9.60745 21.3501 9.32845 21.2343 9.12265 21.0285C8.91684 20.8227 8.801 20.5437 8.8005 20.2526C8.8007 19.9613 8.9164 19.682 9.12223 19.4759C9.32806 19.2698 9.60722 19.1537 9.8985 19.1531H13.8623C13.9252 19.1496 13.9845 19.1222 14.0279 19.0764C14.0712 19.0305 14.0954 18.9698 14.0954 18.9067C14.0954 18.8437 14.0712 18.783 14.0279 18.7371C13.9845 18.6913 13.9252 18.6639 13.8623 18.6604H10.0316C9.66562 18.6598 9.31478 18.514 9.05608 18.2551C8.79738 17.9962 8.65192 17.6453 8.65163 17.2792C8.65192 16.9132 8.79736 16.5622 9.05606 16.3032C9.31475 16.0443 9.66558 15.8984 10.0316 15.8978H10.8866C10.8923 15.8978 10.8968 15.9008 10.9024 15.9008H11.1934C11.4761 15.9008 11.4653 15.6015 11.4645 15.6015V11.3287L10.7696 11.5215V11.9936C10.7696 11.9936 10.7704 12.9626 10.7696 13.2645C10.7696 13.5664 10.7674 13.7959 10.2353 13.8236C9.579 13.8604 9.24188 14.1499 8.64375 14.226C7.40813 14.3854 8.5485 10.3324 9.60488 9.61838C10.356 9.11287 10.7696 9.52312 10.7696 9.97537V10.7314L11.4645 10.5394V7.5H7.84838C5.57475 7.5 3.54675 9.34238 3.54675 11.6156V21.5782C3.54675 22.3556 4.15838 22.986 4.93388 22.986C5.11868 22.986 5.30166 22.9496 5.47237 22.8788C5.64308 22.808 5.79818 22.7043 5.92878 22.5736C6.05938 22.4428 6.16293 22.2876 6.23351 22.1169C6.3041 21.9461 6.34032 21.763 6.34013 21.5782V12.5955H7.50488V23.4709H16.2626V12.5955H17.4398V21.5782C17.4398 22.3556 18.0694 22.986 18.8464 22.986C19.6234 22.986 20.2346 22.3556 20.2346 21.5782V11.6156C20.2343 9.3435 18.3716 7.50113 16.0988 7.50113H16.0984Z" fill="#092C4C"/>
</svg>
