<svg width="604" height="428" viewBox="0 0 604 428" fill="none" xmlns="http://www.w3.org/2000/svg">
<g clip-path="url(#clip0)">
<path opacity="0.1" d="M200.805 427.759C230.219 427.759 254.064 423.928 254.064 419.202C254.064 414.476 230.219 410.645 200.805 410.645C171.391 410.645 147.546 414.476 147.546 419.202C147.546 423.928 171.391 427.759 200.805 427.759Z" fill="#F2994A"/>
<path opacity="0.1" d="M490.315 427.999C527.02 427.999 556.775 424.168 556.775 419.442C556.775 414.716 527.02 410.885 490.315 410.885C453.611 410.885 423.856 414.716 423.856 419.442C423.856 424.168 453.611 427.999 490.315 427.999Z" fill="#F2994A"/>
<path opacity="0.1" d="M7.56476 184.927H63.0378V260.565H11.6259C11.4892 261.342 11.3581 262.124 11.216 262.906H63.0378V323.906C62.9449 323.879 62.8629 323.846 62.7755 323.813C61.3106 323.234 59.8567 322.621 58.4028 321.965L57.4736 321.544C56.016 320.855 54.5584 320.126 53.1009 319.357C52.5926 319.089 52.0842 318.81 51.5814 318.526C43.4896 313.991 36.1387 308.245 29.7835 301.488C29.5977 301.307 29.4228 301.116 29.2369 300.941C28.3514 299.978 27.4824 299.005 26.6406 298.01L25.7114 296.916C24.7166 295.697 23.7546 294.445 22.82 293.176C22.6833 292.99 22.5522 292.804 22.41 292.629C18.6088 287.357 15.4526 281.648 13.0088 275.624C12.9322 275.444 12.8666 275.247 12.7956 275.077C12.0449 273.145 11.3799 271.195 10.8005 269.227C10.5491 268.401 10.3086 267.586 10.1009 266.728C10.0244 266.476 9.9588 266.23 9.89868 265.984C6.79407 253.862 6.42786 241.269 6.42786 228.764C6.42786 227.304 6.42786 225.838 6.42786 224.389C6.42786 219.331 6.48798 214.241 6.57544 209.155C6.57544 207.838 6.63009 206.525 6.65742 205.202C6.73394 201.845 6.84326 198.487 6.98537 195.13C7.01817 194.195 7.0619 193.265 7.11109 192.336C7.11109 191.8 7.13842 191.264 7.19308 190.728C7.32426 188.782 7.43358 186.851 7.56476 184.927Z" fill="#F2994A"/>
<path opacity="0.1" d="M63.0378 100.709H32.6094C37.5557 92.964 42.9601 85.5216 48.7938 78.4215C53.3141 72.8661 58.0858 67.4528 63.0378 62.2363V100.709Z" fill="#F2994A"/>
<path opacity="0.1" d="M63.0379 103.05V182.587H7.73969C7.73969 182.357 7.77795 182.122 7.79434 181.892C7.84354 181.264 7.89273 180.635 7.94739 180.011C8.00751 179.279 8.0731 178.541 8.14416 177.824C8.21521 177.108 8.29174 176.233 8.37373 175.44C8.45571 174.647 8.53224 173.844 8.62515 173.051C8.71807 172.258 8.80006 171.465 8.89845 170.678C8.99683 169.89 9.08429 169.092 9.18814 168.305C9.27013 167.648 9.35758 166.998 9.44503 166.342C9.57075 165.417 9.70193 164.488 9.84404 163.569C9.84404 163.433 9.8823 163.29 9.90417 163.159C10.9018 156.434 12.2611 149.768 13.9762 143.19C15.7715 136.29 18.0641 129.528 20.8359 122.959C23.7818 116.086 27.231 109.441 31.1555 103.077L63.0379 103.05Z" fill="#F2994A"/>
<path opacity="0.1" d="M76.2816 184.922V260.566H194.765V184.922H76.2816ZM76.2816 262.901V327.86C76.9594 328.002 77.6317 328.139 78.2985 328.254C79.2059 328.429 80.1077 328.587 81.0315 328.724C81.2064 328.751 81.3867 328.779 81.578 328.795C81.9388 328.855 82.3105 328.905 82.6712 328.954C83.584 329.079 84.4913 329.183 85.4041 329.265C85.8359 329.309 86.2732 329.347 86.7105 329.38L87.7654 329.462C88.3393 329.506 88.9078 329.539 89.4707 329.555C89.8206 329.555 90.1704 329.588 90.5311 329.599C90.8044 329.599 91.0777 329.599 91.3619 329.599C91.6462 329.599 92.0506 329.599 92.395 329.599C92.865 329.599 93.3351 329.599 93.7997 329.599H94.4283C94.8984 329.599 95.3684 329.599 95.833 329.555H95.8658C96.1883 329.555 96.5162 329.555 96.8442 329.511C96.9352 329.517 97.0265 329.517 97.1175 329.511C97.3908 329.511 97.6641 329.511 97.9264 329.473H98.1177L99.9488 329.331C100.55 329.276 101.157 329.205 101.769 329.14L103.015 328.992C108.085 328.281 113.099 327.214 118.019 325.799C129.071 322.715 139.882 318.401 150.929 315.24C165.211 311.166 180.991 309.165 194.792 314.146V262.901H76.2816ZM194.765 100.71V0.00601255C181.793 -0.134582 168.857 1.38322 156.269 4.52256C126.267 12.0629 99.3476 28.4176 76.2816 49.3053V100.704H82.2285V103.039H76.2816V182.587H194.765V103.044H106.644V100.71H194.765ZM346.951 66.6934C339.529 66.4309 332.15 64.0797 325.476 60.449C312.713 53.5047 302.519 42.782 291.128 33.7325C267.461 14.8844 238.109 3.51098 207.998 0.689509V100.71H377.139L377.56 100.267L346.951 66.6934ZM362.36 63.9594L378.697 81.8944V59.257C373.226 59.935 368.432 61.548 362.381 63.9375L362.36 63.9594ZM378.697 343.991V262.901H343.885C343.792 262.556 343.699 262.206 343.59 261.856C343.694 262.206 343.781 262.556 343.879 262.901H208.02V321.545C209.31 322.502 210.583 323.508 211.846 324.53C213.207 325.624 214.552 326.777 215.902 327.909L217.263 329.036C217.913 329.583 218.569 330.129 219.23 330.643C220.542 331.708 221.867 332.758 223.204 333.793C223.865 334.34 224.543 334.832 225.215 335.346C235.889 343.509 247.148 350.876 258.902 357.387C261.536 358.845 264.194 360.269 266.876 361.658C268.664 362.571 270.462 363.479 272.266 364.359C274.977 365.682 277.71 366.958 280.464 368.186C305.862 379.592 332.719 387.418 360.266 391.442C366.384 392.346 372.526 393.057 378.692 393.574V343.985H379.238L378.697 343.991ZM208.02 103.044V182.587H378.719V103.044H208.02ZM208.02 184.922V260.566H378.719V184.922H208.02ZM391.968 59.1585V84.4096L412.82 61.5207C405.912 60.4052 398.961 59.6087 391.968 59.1312V59.1585ZM391.968 184.949V260.566H557.994V184.922L391.968 184.949ZM557.387 349.995L557.972 262.901H391.968V394.444C402.662 394.893 413.373 394.765 424.053 394.061V394.061H424.239C429.34 393.74 434.418 393.273 439.472 392.661H439.587C466.55 389.522 492.915 382.484 517.858 371.768L557.387 349.995ZM590.007 197.378C589.384 195.907 588.734 194.447 588.072 193.004C586.837 190.27 585.531 187.612 584.186 184.955H571.232V260.566H603.984C603.967 239.153 598.55 217.281 590.024 197.351L590.007 197.378ZM571.232 262.928V337.839C580.458 328.992 588.253 318.871 593.866 307.301C600.617 293.368 603.705 278.282 603.956 262.917L571.232 262.928ZM571.232 162.908V182.593H582.973C579.421 175.816 575.507 169.236 571.248 162.88L571.232 162.908ZM458.635 73.9986C457.772 73.6705 456.908 73.337 456.039 73.0144C446.873 69.6282 437.507 66.8123 427.994 64.5828L396.084 99.6161L395.472 100.267L395.882 100.715H509.451C493.634 89.8232 476.582 80.8459 458.652 73.9713L458.635 73.9986ZM512.78 103.072H394.297L391.968 105.204V182.587H412.378H412.41H558.016V145.104C544.844 129.168 529.642 115.028 512.797 103.044L512.78 103.072Z" fill="#F2994A"/>
<path opacity="0.1" d="M63.0379 143.168V182.587H7.73969C7.73969 182.357 7.77795 182.122 7.79434 181.892C7.84354 181.263 7.89273 180.635 7.94739 180.011C8.00751 179.278 8.0731 178.54 8.14416 177.824C8.21521 177.108 8.29174 176.233 8.37373 175.44C8.45571 174.647 8.53224 173.843 8.62515 173.05C8.71807 172.258 8.80006 171.465 8.89845 170.677C8.99683 169.89 9.08429 169.092 9.18814 168.304C9.27013 167.648 9.35758 166.997 9.44503 166.341C9.57075 165.417 9.70193 164.488 9.84404 163.569C9.84404 163.432 9.8823 163.29 9.90417 163.159C10.9018 156.434 12.2611 149.768 13.9762 143.19L63.0379 143.168Z" fill="#F2994A"/>
<path opacity="0.1" d="M7.56476 184.927H63.0378V260.565H11.6259C11.4892 261.342 11.3581 262.124 11.216 262.906H63.0378V323.906C62.9449 323.879 62.8629 323.846 62.7755 323.813C61.3106 323.234 59.8567 322.621 58.4028 321.965L57.4736 321.544C56.016 320.855 54.5584 320.126 53.1009 319.357C52.5926 319.089 52.0842 318.81 51.5814 318.526C43.4896 313.991 36.1387 308.245 29.7835 301.488C29.5977 301.307 29.4228 301.116 29.2369 300.941C28.3514 299.978 27.4824 299.005 26.6406 298.01L25.7114 296.916C24.7166 295.697 23.7546 294.445 22.82 293.176C22.6833 292.99 22.5522 292.804 22.41 292.629C18.6088 287.357 15.4526 281.648 13.0088 275.624C12.9322 275.444 12.8666 275.247 12.7956 275.077C12.0449 273.145 11.3799 271.195 10.8005 269.227C10.5491 268.401 10.3086 267.586 10.1009 266.728C10.0244 266.476 9.9588 266.23 9.89868 265.984C6.79407 253.862 6.42786 241.269 6.42786 228.764C6.42786 227.304 6.42786 225.838 6.42786 224.389C6.42786 219.331 6.48798 214.241 6.57544 209.155C6.57544 207.838 6.63009 206.525 6.65742 205.202C6.73394 201.845 6.84326 198.487 6.98537 195.13C7.01817 194.195 7.0619 193.265 7.11109 192.336C7.11109 191.8 7.13842 191.264 7.19308 190.728C7.32426 188.782 7.43358 186.851 7.56476 184.927Z" fill="#F2994A"/>
<path opacity="0.1" d="M117.992 114.433V182.586H76.2816V114.433H82.2285V91.3584H106.639V114.433H117.992Z" fill="#F2994A"/>
<path opacity="0.1" d="M117.992 184.921H76.2871V260.559H117.992V184.921Z" fill="#F2994A"/>
<path opacity="0.1" d="M76.2816 262.905H117.992V325.787C113.072 327.201 108.058 328.267 102.988 328.975L101.742 329.128C101.129 329.199 100.523 329.259 99.9215 329.319C99.3202 329.379 98.6971 329.423 98.0904 329.461H97.8991C97.6368 329.461 97.3525 329.494 97.0956 329.5H96.8169C96.4889 329.5 96.161 329.533 95.833 329.543C95.3684 329.571 94.9038 329.576 94.4283 329.582C94.226 329.582 94.0347 329.582 93.8325 329.582C93.3624 329.582 92.8978 329.582 92.4278 329.582H91.3947C91.116 329.582 90.8481 329.582 90.5585 329.582L89.5035 329.543C88.957 329.543 88.3666 329.483 87.7982 329.445L86.7487 329.368L85.4424 329.248C84.5241 329.166 83.6113 329.062 82.7095 328.937L81.6163 328.783L81.0697 328.707C80.1569 328.565 79.255 328.412 78.3368 328.237C77.6645 328.122 76.9976 327.98 76.3199 327.843L76.2816 262.905Z" fill="#F2994A"/>
<path opacity="0.1" d="M378.719 106.385H344.328V182.581H378.719V106.385Z" fill="#F2994A"/>
<path opacity="0.1" d="M378.724 184.921V260.565H208.02V227.937H298.945V247.185H344.328V184.921H378.724Z" fill="#F2994A"/>
<path opacity="0.1" d="M379.265 344.007H378.719V393.628C372.561 393.107 366.421 392.398 360.299 391.501C332.738 387.465 305.87 379.622 280.464 368.197C273.129 364.894 265.944 361.289 258.907 357.381C247.154 350.867 235.893 343.5 225.216 335.34C222.534 333.284 219.886 331.181 217.274 329.03C215.464 327.537 213.666 326.006 211.846 324.519C210.583 323.496 209.31 322.49 208.02 321.528V262.906H343.874C343.781 262.556 343.688 262.206 343.59 261.861C343.694 262.206 343.792 262.556 343.885 262.906H378.719V343.974C378.905 343.979 379.085 343.996 379.265 344.007Z" fill="#F2994A"/>
<path opacity="0.1" d="M468.414 100.709H446.004V93.7431H456.05V72.9922C456.921 73.3093 457.788 73.6356 458.652 73.971V93.7431H468.414V100.709Z" fill="#F2994A"/>
<path opacity="0.1" d="M522.406 182.587H412.389C412.389 182.587 412.389 182.587 412.427 182.614L412.378 182.587H391.968V106.391H397.751V162.711H424.178V129.356H446.009V103.05H468.419V129.378H490.25V162.733H522.406V182.587Z" fill="#F2994A"/>
<path opacity="0.1" d="M391.968 184.921V260.565H522.406V184.921H391.968ZM557.813 349.605L557.994 289.731H522.406V262.938H391.968V394.443C402.662 394.892 413.373 394.764 424.053 394.06V394.06H424.239C429.34 393.739 434.418 393.272 439.472 392.66H439.587C466.55 389.521 492.915 382.483 517.858 371.767" fill="#F2994A"/>
<path opacity="0.1" d="M573.55 262.905H603.978C603.71 278.265 600.628 293.351 593.883 307.283C588.269 318.859 580.469 328.98 571.254 337.822V289.704H573.55V262.905Z" fill="#F2994A"/>
<path opacity="0.1" d="M603.995 260.565H573.55V197.35H590.024C598.55 217.28 603.967 239.152 603.995 260.565Z" fill="#F2994A"/>
<path opacity="0.1" d="M378.724 127.568H360.299V151.458H378.724V127.568Z" fill="#F2994A"/>
<path opacity="0.1" d="M378.724 177.086H360.299V182.587H378.724V177.086Z" fill="#F2994A"/>
<path opacity="0.1" d="M378.724 184.921H360.299V200.969H378.724V184.921Z" fill="#F2994A"/>
<path opacity="0.1" d="M378.724 226.604H360.299V250.493H378.724V226.604Z" fill="#F2994A"/>
<path opacity="0.1" d="M378.724 276.121H360.299V300.011H378.724V276.121Z" fill="#F2994A"/>
<path opacity="0.1" d="M378.719 343.974C378.905 343.974 379.085 343.974 379.265 344.007H378.719V349.557H360.299V325.64H378.719V343.974Z" fill="#F2994A"/>
<path opacity="0.1" d="M378.719 375.146V393.601C372.561 393.08 366.421 392.371 360.299 391.474V375.146H378.719Z" fill="#F2994A"/>
<path opacity="0.1" d="M286.985 258.81H208.02V260.565H286.985V258.81Z" fill="#F2994A"/>
<path opacity="0.1" d="M286.985 262.9H208.02V269.626H286.985V262.9Z" fill="#F2994A"/>
<path opacity="0.1" d="M286.985 291.673H208.02V302.489H286.985V291.673Z" fill="#F2994A"/>
<path opacity="0.1" d="M286.98 324.535V335.351H225.216C222.534 333.302 219.884 331.199 217.268 329.041C215.459 327.548 213.666 326.017 211.841 324.535H286.98Z" fill="#F2994A"/>
<path opacity="0.1" d="M286.98 357.392V368.197H280.459C273.131 364.891 265.947 361.284 258.907 357.376L286.98 357.392Z" fill="#F2994A"/>
<path opacity="0.1" d="M439.603 192.254H424.058V207.805H439.603V192.254Z" fill="#F2994A"/>
<path opacity="0.1" d="M103.026 119.798H87.4812V135.349H103.026V119.798Z" fill="#F2994A"/>
<path opacity="0.1" d="M103.026 155.919H87.4812V171.47H103.026V155.919Z" fill="#F2994A"/>
<path opacity="0.1" d="M103.026 192.041H87.4812V207.592H103.026V192.041Z" fill="#F2994A"/>
<path opacity="0.1" d="M103.026 228.156H87.4812V243.707H103.026V228.156Z" fill="#F2994A"/>
<path opacity="0.1" d="M103.026 264.278H87.4812V279.829H103.026V264.278Z" fill="#F2994A"/>
<path opacity="0.1" d="M103.026 300.399H87.4812V315.95H103.026V300.399Z" fill="#F2994A"/>
<path opacity="0.1" d="M498.946 192.254H483.401V207.805H498.946V192.254Z" fill="#F2994A"/>
<path opacity="0.1" d="M439.603 230.611H424.058V246.162H439.603V230.611Z" fill="#F2994A"/>
<path opacity="0.1" d="M498.946 230.611H483.401V246.162H498.946V230.611Z" fill="#F2994A"/>
<path opacity="0.1" d="M439.603 268.964H424.058V284.515H439.603V268.964Z" fill="#F2994A"/>
<path opacity="0.1" d="M498.946 268.964H483.401V284.515H498.946V268.964Z" fill="#F2994A"/>
<path opacity="0.1" d="M439.603 307.322H424.058V322.873H439.603V307.322Z" fill="#F2994A"/>
<path opacity="0.1" d="M498.946 307.322H483.401V322.873H498.946V307.322Z" fill="#F2994A"/>
<path opacity="0.1" d="M439.603 345.68H424.058V361.231H439.603V345.68Z" fill="#F2994A"/>
<path opacity="0.1" d="M498.946 345.68H483.401V361.231H498.946V345.68Z" fill="#F2994A"/>
<path opacity="0.1" d="M424.058 394.06V384.032H439.598V392.633L424.058 394.06Z" fill="#F2994A"/>
<path opacity="0.1" d="M9.83856 163.147V172.044H63.0378V163.147H9.83856ZM15.1405 171.486H10.8006V163.694H15.1732L15.1405 171.486ZM20.4369 171.486H16.0642V163.694H20.4369V171.486ZM25.7224 171.486H21.3497V163.694H25.7224V171.486ZM31.0188 171.486H26.6516V163.694H31.0243L31.0188 171.486ZM36.3097 171.486H31.9371V163.694H36.3097V171.486ZM41.6062 171.486H37.2335V163.694H41.6062V171.486ZM46.9026 171.486H42.5299V163.694H46.9026V171.486ZM52.1935 171.486H47.8209V163.694H52.1935V171.486ZM57.4845 171.486H53.1118V163.694H57.4845V171.486ZM62.7755 171.486H58.4028V163.694H62.7755V171.486Z" fill="#F2994A"/>
<path opacity="0.1" d="M9.83856 189.033V197.93H63.0378V189.033H9.83856ZM15.1405 197.366H10.8006V189.596H15.1732L15.1405 197.366ZM20.4369 197.366H16.0642V189.596H20.4369V197.366ZM25.7224 197.366H21.3497V189.596H25.7224V197.366ZM31.0188 197.366H26.6516V189.596H31.0243L31.0188 197.366ZM36.3097 197.366H31.9371V189.596H36.3097V197.366ZM41.6062 197.366H37.2335V189.596H41.6062V197.366ZM46.9026 197.366H42.5299V189.596H46.9026V197.366ZM52.1935 197.366H47.8209V189.596H52.1935V197.366ZM57.4845 197.366H53.1118V189.596H57.4845V197.366ZM62.7755 197.366H58.4028V189.596H62.7755V197.366Z" fill="#F2994A"/>
<path opacity="0.1" d="M9.83856 214.93V223.842H63.0378V214.93H9.83856ZM15.1405 223.263H10.8006V215.487H15.1732L15.1405 223.263ZM20.4369 223.263H16.0642V215.487H20.4369V223.263ZM25.7224 223.263H21.3497V215.487H25.7224V223.263ZM31.0188 223.263H26.6516V215.487H31.0243L31.0188 223.263ZM36.3097 223.263H31.9371V215.487H36.3097V223.263ZM41.6062 223.263H37.2335V215.487H41.6062V223.263ZM46.9026 223.263H42.5299V215.487H46.9026V223.263ZM52.1935 223.263H47.8209V215.487H52.1935V223.263ZM57.4845 223.263H53.1118V215.487H57.4845V223.263ZM62.7755 223.263H58.4028V215.487H62.7755V223.263Z" fill="#F2994A"/>
<path opacity="0.1" d="M9.83856 240.826V249.712H63.0378V240.826H9.83856ZM15.1405 249.159H10.8006V241.378H15.1732L15.1405 249.159ZM20.4369 249.159H16.0642V241.378H20.4369V249.159ZM25.7224 249.159H21.3497V241.378H25.7224V249.159ZM31.0188 249.159H26.6516V241.378H31.0243L31.0188 249.159ZM36.3097 249.159H31.9371V241.378H36.3097V249.159ZM41.6062 249.159H37.2335V241.378H41.6062V249.159ZM46.9026 249.159H42.5299V241.378H46.9026V249.159ZM52.1935 249.159H47.8209V241.378H52.1935V249.159ZM57.4845 249.159H53.1118V241.378H57.4845V249.159ZM62.7755 249.159H58.4028V241.378H62.7755V249.159Z" fill="#F2994A"/>
<path opacity="0.1" d="M10.0681 266.717C10.2813 267.553 10.5218 268.39 10.7732 269.216V267.275H15.1459V275.05H12.8065C12.8776 275.23 12.9486 275.427 13.0197 275.597H63.0378V266.717H10.0681ZM20.4533 275.05H16.0806V267.275H20.4533V275.05ZM25.7388 275.05H21.3661V267.275H25.7388V275.05ZM31.0352 275.05H26.6516V267.275H31.0243L31.0352 275.05ZM36.3261 275.05H31.9535V267.275H36.3261V275.05ZM41.6226 275.05H37.2499V267.275H41.6226V275.05ZM46.919 275.05H42.5463V267.275H46.919V275.05ZM52.2099 275.05H47.8373V267.275H52.2099V275.05ZM57.5009 275.05H53.1282V267.275H57.5009V275.05ZM62.7919 275.05H58.4192V267.275H62.7919V275.05Z" fill="#F2994A"/>
<path opacity="0.1" d="M22.421 292.613C22.5576 292.788 22.6888 292.985 22.8309 293.16H25.7224V296.895C26.0339 297.266 26.34 297.638 26.657 297.988V293.138H31.0297V300.941H29.2588C29.4337 301.121 29.6031 301.313 29.8054 301.488H63.0542V292.613H22.421ZM36.3097 300.941H31.937V293.171H36.3097V300.941ZM41.6062 300.941H37.2335V293.171H41.6062V300.941ZM46.9026 300.941H42.5299V293.171H46.9026V300.941ZM52.1935 300.941H47.8208V293.171H52.1935V300.941ZM57.4845 300.941H53.1118V293.171H57.4845V300.941ZM62.7755 300.941H58.4028V293.171H62.7755V300.941Z" fill="#F2994A"/>
<path opacity="0.1" d="M51.6032 318.504C52.1006 318.788 52.609 319.051 53.1228 319.335V319.062H57.4954V321.522L58.4246 321.954V319.062H62.7973V323.791C62.8812 323.833 62.9691 323.866 63.0597 323.89V318.504H51.6032Z" fill="#F2994A"/>
<path opacity="0.1" d="M412.389 182.586H412.421H412.389ZM378.719 343.968H379.265H378.719ZM343.59 261.855C343.694 262.205 343.781 262.555 343.879 262.9C343.792 262.555 343.699 262.205 343.59 261.855ZM412.389 182.57H412.421H412.389ZM82.2504 100.692V103.027H106.666V100.692H82.2504ZM378.719 343.968H379.265H378.719ZM343.59 261.855C343.694 262.205 343.781 262.555 343.879 262.9C343.792 262.555 343.699 262.205 343.59 261.855ZM412.389 182.57H412.421H412.389ZM378.719 343.952H379.265H378.719ZM343.59 261.855C343.694 262.205 343.781 262.555 343.879 262.9C343.792 262.555 343.699 262.205 343.59 261.855Z" fill="#F2994A"/>
<path d="M252.304 207.602C252.304 207.602 250.151 207.301 250.151 204.163C250.151 201.024 248.609 195.162 248.609 195.162C248.609 195.135 247.276 184.954 245.434 183.335C243.592 181.717 241.225 172.213 241.225 172.213C241.225 172.213 240.821 167.057 239.995 165.947C239.17 164.837 238.055 162.119 236.41 158.243C234.764 154.366 227.905 151.681 227.905 151.681C227.905 151.681 215.503 144.485 211.988 142.139C211.669 141.947 211.37 141.721 211.097 141.467C210.485 140.663 207.818 140.647 207.818 140.647C207.539 138.886 207.271 136.863 207.184 135.031C207.184 134.834 207.184 134.637 207.156 134.441C211.075 132.123 214.027 128.469 215.47 124.15C215.535 123.942 215.59 123.723 215.65 123.516C215.885 123.438 216.101 123.313 216.285 123.147C216.468 122.981 216.615 122.779 216.716 122.553C217.033 121.848 217.039 121.022 217.432 120.366C217.891 119.59 218.766 119.174 219.454 118.589C221.193 117.113 221.641 114.625 221.559 112.361C221.504 110.529 221.209 108.681 221.324 106.86L221.357 106.401C221.389 106.127 221.428 105.854 221.477 105.592C221.745 104.235 222.33 102.956 222.657 101.611C222.985 100.266 223.018 98.7511 222.253 97.5919C221.133 95.8914 218.799 95.5523 216.749 95.3774C214.426 95.1805 212.349 95.4375 210.862 93.5073C210.166 92.4985 209.384 91.5526 208.523 90.6804C208.217 90.3961 205.243 88.5807 205.243 88.4604C202.341 87.1158 199.052 86.8634 195.979 87.7496C194.437 88.1979 192.983 88.9306 191.42 89.297C188.048 90.0953 184.167 89.2314 181.303 91.1616C179.707 92.2552 178.75 93.994 177.854 95.6891C177.125 97.0852 176.385 98.4795 175.635 99.872C174.427 102.163 173.197 104.492 172.689 107.03C172.582 107.582 172.516 108.141 172.492 108.703V108.73C172.492 108.932 172.492 109.135 172.492 109.337V109.594C172.492 109.785 172.492 109.971 172.525 110.141C172.557 110.31 172.552 110.365 172.568 110.48C172.585 110.595 172.612 110.852 172.645 111.027C172.678 111.202 172.743 111.508 172.809 111.748C172.836 111.852 172.874 111.951 172.907 112.049C172.962 112.235 173.027 112.416 173.098 112.596C173.137 112.689 173.175 112.787 173.219 112.88C173.301 113.072 173.399 113.258 173.497 113.427C173.541 113.504 173.574 113.575 173.618 113.646C173.77 113.9 173.938 114.145 174.121 114.379C175.29 115.839 177.012 116.768 178.286 118.135C178.286 118.19 178.286 118.244 178.286 118.294C178.286 118.447 178.286 118.594 178.286 118.747C178.353 121.796 179.164 124.782 180.648 127.446C182.133 130.109 184.245 132.37 186.801 134.03C186.801 134.238 186.829 134.451 186.84 134.659C186.946 136.282 186.926 137.911 186.78 139.531C186.557 139.269 186.278 139.06 185.964 138.92C185.65 138.78 185.309 138.712 184.965 138.722C184.73 138.711 184.495 138.731 184.265 138.782L184.216 138.744V138.793C183.014 139.088 181.532 140.341 180.117 143.9C180.117 143.9 175.81 148.756 172.53 148.553C169.251 148.351 160.948 153.606 160.948 153.606C160.948 153.606 152.847 158.866 151.109 164.225C150.138 167.263 148.973 170.237 147.622 173.126L137.609 193.768L135.761 210.145C135.761 210.145 136.783 217.428 136.581 218.538C136.379 219.648 140.784 229.66 140.784 229.66C140.784 229.66 155.34 255.244 161.287 256.557L161.713 256.256C161.968 256.389 162.237 256.49 162.517 256.557L163.741 255.693C163.814 256.656 163.783 257.624 163.648 258.58C162.828 261.106 163.954 277.592 165.386 280.824C166.818 284.055 166.31 326.426 166.31 326.426L166.108 330.167C166.108 330.167 166.108 330.287 166.157 330.495L166.108 331.38L166.255 331.457C166.408 332.643 166.359 333.847 166.108 335.017C165.594 336.657 165.386 341.294 165.386 341.294C165.386 341.294 161.292 367.475 163.233 372.735C165.173 377.995 166.824 383.758 166.824 383.758C166.824 383.758 168.873 390.32 166.922 391.441C164.971 392.562 159.423 394.443 160.565 397.177C161.604 399.703 165.545 406.472 166.13 407.462L166.08 407.981L165.277 416.692C165.407 417.842 165.719 418.964 166.201 420.016C167.081 421.914 168.791 423.882 172.044 423.669C172.59 423.631 173.224 423.565 173.836 423.483C179.789 422.685 187.118 420.027 187.118 420.027C186.738 419.785 186.389 419.497 186.08 419.169V419.169C185.787 418.885 185.556 418.545 185.399 418.169C185.242 417.793 185.163 417.389 185.167 416.982C185.255 415.396 182.287 407.839 181.549 405.98C181.434 405.712 181.374 405.559 181.374 405.559C181.374 405.559 188.141 398.483 187.015 392.212C187.015 392.212 179.526 387.837 181.991 385.437C184.457 383.036 188.862 376.141 188.862 376.141C188.862 376.141 189.064 350.36 188.862 346.51C188.651 343.839 188.778 341.151 189.239 338.511C189.321 338.112 189.42 337.723 189.523 337.341C192.933 337.85 196.374 338.111 199.821 338.122C201.078 338.122 202.357 338.122 203.647 338.046C203.647 338.41 203.664 338.804 203.696 339.227C203.981 345.614 204.511 356.812 204.943 360.973C205.555 366.939 208.938 383.015 208.938 383.015C208.938 383.015 202.483 387.159 210.064 397.373C210.064 397.373 210.064 401.075 209.561 401.611C209.024 403.363 208.592 405.145 208.266 406.948C207.949 408.873 207.818 410.819 208.331 411.831C209.561 414.248 216.94 414.051 216.94 414.051L217.121 414.018C218.514 413.874 219.921 414.008 221.262 414.413C222.603 414.817 223.85 415.484 224.931 416.375C227.735 418.627 238.377 417.638 244.138 416.921C246.396 416.637 247.904 416.375 247.904 416.375C247.977 416.119 248.003 415.852 247.981 415.587C247.921 414.171 246.811 411.065 239.29 408.293C239.29 408.293 232.217 403.536 232.316 399.391H232.168H231.348C231.944 399.358 232.327 399.391 232.327 399.391C232.327 399.391 229.555 389.275 230.687 388.455C231.818 387.635 228.429 376.426 228.429 376.426C228.429 376.426 226.489 357.616 226.385 356.298C226.39 355.167 226.561 354.043 226.894 352.963L226.385 342.65C226.385 342.65 226.287 339.222 226.385 338.106C226.369 337.138 226.29 336.172 226.15 335.214C226.101 334.831 226.052 334.432 225.997 334.038C228.648 333.365 230.37 332.742 230.37 332.742L230.064 296.845C232.316 292.47 232.731 282.874 232.72 276.066C232.72 271.692 232.523 268.455 232.523 268.455L235.601 263.43C235.601 263.43 236.311 257.415 235.185 256.097C234.688 255.501 234.912 254.884 235.322 254.375C235.535 254.206 235.759 254.053 235.994 253.916C235.994 253.916 235.961 253.867 235.923 253.795C236.138 253.616 236.366 253.453 236.606 253.309C236.606 253.309 235.513 251.614 236.492 250.897C237.41 251.521 238.23 251.991 238.853 252.374C238.809 252.773 238.765 253.003 238.765 253.003L239.028 252.456C239.629 252.795 239.995 253.003 239.995 253.003C239.995 253.003 244.816 243.395 244.712 241.979C244.608 240.563 247.992 234.597 247.992 234.597C247.992 234.597 248.402 231.464 250.249 230.152C252.097 228.84 251.681 219.331 251.681 219.331C251.681 219.331 252.195 214.377 253.425 212.354C254.655 210.331 252.304 207.602 252.304 207.602ZM160.062 203.386L160.155 205.677C159.609 204.797 159.215 204.163 159.215 204.163L160.062 203.386Z" fill="url(#paint0_linear)"/>
<path d="M240.258 248.853L239.077 253.884C239.077 253.884 229.621 249.056 227.916 242.92C226.21 236.785 230.769 234.456 230.769 234.456L239.58 238.191L240.258 248.853Z" fill="white"/>
<path opacity="0.1" d="M240.258 248.853L239.077 253.884C239.077 253.884 229.621 249.056 227.916 242.92C226.21 236.785 230.769 234.456 230.769 234.456L239.58 238.191L240.258 248.853Z" fill="black"/>
<path d="M187.189 420.06C187.189 420.06 178.444 423.276 172.432 423.68C169.24 423.893 167.562 421.936 166.698 420.05C166.226 419.001 165.922 417.885 165.796 416.741L166.578 408.075L166.993 403.46L179.767 400.141L181.576 405.674L181.745 406.095C182.472 407.943 185.386 415.462 185.298 417.031C185.295 417.433 185.372 417.831 185.526 418.203C185.68 418.574 185.908 418.91 186.195 419.191C186.488 419.522 186.822 419.814 187.189 420.06V420.06Z" fill="white"/>
<path d="M246.926 415.653C246.948 415.916 246.922 416.181 246.849 416.435C246.849 416.435 228.145 419.557 224.319 416.435C223.24 415.523 221.983 414.847 220.627 414.449C219.272 414.052 217.849 413.942 216.448 414.128C216.448 414.128 209.211 414.324 208.004 411.94C207.501 410.94 207.632 408.999 207.943 407.085C208.261 405.292 208.685 403.519 209.211 401.775L209.501 401.546L211.223 400.162L231.381 399.566H231.534C231.436 403.689 238.377 408.419 238.377 408.419C245.751 411.153 246.838 414.242 246.926 415.653Z" fill="white"/>
<path opacity="0.1" d="M246.926 415.653C246.945 415.917 246.917 416.181 246.844 416.435C246.844 416.435 228.145 419.557 224.319 416.435C223.241 415.524 221.984 414.848 220.63 414.45C219.276 414.053 217.853 413.943 216.454 414.128C216.454 414.128 209.211 414.325 208.009 411.941C207.506 410.934 207.632 408.999 207.943 407.085C210.731 407.364 215.131 408.058 216.858 409.715C219.471 412.236 223.898 414.751 226.615 414.948C228.741 415.085 241.46 415.489 246.926 415.653Z" fill="black"/>
<path opacity="0.1" d="M187.189 420.061C187.189 420.061 178.444 423.276 172.432 423.681C169.24 423.894 167.562 421.936 166.703 420.044C168.928 420.794 172.016 421.581 173.64 420.859C175.564 420.006 182.385 419.454 186.211 419.219C186.502 419.538 186.831 419.82 187.189 420.061V420.061Z" fill="black"/>
<path d="M200.165 160.96C192.95 158.155 183.669 148.887 185.987 144.556C186.502 143.463 186.808 142.284 186.889 141.079C187.038 139.442 187.06 137.797 186.954 136.157C186.792 133.472 186.469 130.799 185.987 128.152C185.987 128.152 208.512 128.661 207.2 131.98C206.817 132.953 206.757 134.643 206.861 136.535C206.965 138.427 207.238 140.565 207.522 142.375C207.916 144.857 208.31 146.749 208.31 146.749C208.31 146.749 206.932 148.679 206.123 148.783C205.314 148.887 210.518 164.957 200.165 160.96Z" fill="#CF6F80"/>
<path opacity="0.1" d="M181.729 406.095L181.56 406.281C174.826 398.134 166.682 408.288 166.682 408.288L166.561 408.075L166.977 403.46L179.75 400.141L181.56 405.674L181.729 406.095Z" fill="black"/>
<path opacity="0.1" d="M231.54 400.141C231.54 400.141 226.62 400.037 223.997 402.355C221.373 404.674 208.692 402.858 209.239 402.355C209.401 402.106 209.498 401.821 209.523 401.524L211.245 400.141L231.403 399.545C231.479 399.911 231.54 400.141 231.54 400.141Z" fill="black"/>
<path d="M190.108 336.16C189.742 337.066 189.464 338.005 189.277 338.965C188.822 341.592 188.695 344.267 188.9 346.926C189.103 350.754 188.9 376.404 188.9 376.404C188.9 376.404 184.577 383.244 182.166 385.656C179.756 388.067 187.086 392.398 187.086 392.398C188.179 398.631 181.554 405.674 181.554 405.674C174.82 397.527 166.676 407.686 166.676 407.686C166.676 407.686 162.249 400.031 161.145 397.297C160.041 394.563 165.468 392.671 167.376 391.561C169.283 390.451 167.283 383.906 167.283 383.906C167.283 383.906 165.67 378.17 163.757 372.937C161.844 367.704 165.867 341.655 165.867 341.655C165.867 341.655 166.075 337.029 166.572 335.416C166.823 334.252 166.873 333.054 166.72 331.873C166.687 331.474 166.649 331.14 166.621 330.916C166.594 330.692 166.572 330.588 166.572 330.588L166.649 330.457L169.382 325.36C169.382 325.36 191.42 332.95 190.108 336.16Z" fill="#F2994A"/>
<path d="M231.54 399.54C231.54 399.54 226.62 399.436 223.997 401.727C221.373 404.018 208.692 402.23 209.239 401.727C209.785 401.224 209.742 397.5 209.742 397.5C202.303 387.341 208.648 383.218 208.648 383.218C208.648 383.218 205.325 367.224 204.724 361.291C204.303 357.147 203.784 346.008 203.505 339.649C203.385 336.915 203.314 335.034 203.314 335.034L209.392 333.809L210.173 333.651L224.833 330.709C224.833 330.709 225.237 333.443 225.511 335.679C225.647 336.634 225.724 337.597 225.74 338.561C225.642 339.655 225.74 343.078 225.74 343.078L226.238 353.341C225.913 354.417 225.745 355.535 225.74 356.66C225.839 357.967 227.746 376.678 227.746 376.678C227.746 376.678 231.064 387.844 229.933 388.648C228.801 389.451 231.54 399.54 231.54 399.54Z" fill="#F2994A"/>
<path opacity="0.1" d="M207.2 131.98C206.817 132.953 206.757 134.643 206.861 136.535C203.844 138.352 200.376 139.282 196.854 139.216C193.333 139.15 189.902 138.092 186.954 136.163C186.792 133.476 186.469 130.801 185.987 128.152C185.987 128.152 208.512 128.65 207.2 131.98Z" fill="black"/>
<path d="M215.907 119.896C215.911 121.867 215.602 123.825 214.989 125.698C213.619 129.894 210.811 133.47 207.061 135.796C203.311 138.121 198.859 139.044 194.494 138.404C190.128 137.763 186.13 135.599 183.205 132.295C180.28 128.99 178.617 124.757 178.51 120.345C178.51 120.192 178.51 120.05 178.51 119.896C178.467 117.413 178.92 114.945 179.84 112.638C180.761 110.331 182.132 108.231 183.873 106.459C185.614 104.688 187.69 103.281 189.98 102.32C192.27 101.36 194.728 100.865 197.211 100.865C199.694 100.865 202.153 101.36 204.443 102.32C206.733 103.281 208.809 104.688 210.55 106.459C212.29 108.231 213.661 110.331 214.582 112.638C215.503 114.945 215.955 117.413 215.913 119.896H215.907Z" fill="#CF6F80"/>
<path opacity="0.1" d="M200.165 160.961C192.95 158.156 183.669 148.887 185.987 144.557C186.502 143.464 186.808 142.284 186.889 141.079L196.766 149.199L202.877 154.213L207.522 142.38C207.916 144.863 208.31 146.755 208.31 146.755C208.31 146.755 206.932 148.685 206.123 148.789C205.314 148.893 210.518 164.958 200.165 160.961Z" fill="black"/>
<path d="M225.707 196.847L217.459 335.46L206.703 336.166L178.849 255.792L183.418 160.37L184.38 140.21L196.766 150.386L202.882 155.4L207.665 143.223L216.558 150.976L225.707 196.847Z" fill="#F2994A"/>
<path opacity="0.1" d="M190.108 336.16C189.742 337.066 189.464 338.005 189.277 338.965C181.45 337.756 173.848 335.38 166.725 331.917L166.578 331.84L166.627 330.96L166.654 330.5L169.387 325.404C169.387 325.404 191.42 332.95 190.108 336.16Z" fill="black"/>
<path opacity="0.1" d="M209.518 338.987C207.517 339.327 205.498 339.557 203.472 339.676C203.352 336.942 203.281 335.061 203.281 335.061L209.359 333.836L209.518 338.987Z" fill="black"/>
<path opacity="0.1" d="M225.478 335.706C221.592 336.717 215.59 337.855 210.217 337.144L210.141 333.677L224.8 330.735C224.8 330.735 225.205 333.442 225.478 335.706Z" fill="black"/>
<path opacity="0.1" d="M210.119 337.779C187.709 341.606 167.184 330.632 167.184 330.632L167.381 326.914C167.381 326.914 167.89 284.761 166.479 281.53C165.069 278.298 163.97 261.911 164.768 259.395C165.567 256.88 161.855 219.162 161.855 219.162L161.254 203.852L139.248 194.933L149.087 174.417C150.416 171.541 151.559 168.582 152.509 165.559C154.219 160.234 162.161 155.001 162.161 155.001C162.161 155.001 170.305 149.773 173.525 149.97C176.744 150.167 180.964 145.344 180.964 145.344C184.079 137.399 186.9 140.997 186.9 140.997C186.9 141.375 186.9 140.997 186.747 142.173C185.654 150.894 204.423 178.453 204.691 178.94L206.479 222.497L208.288 277.62L210.119 337.779Z" fill="black"/>
<path d="M209.518 337.778C187.107 341.606 166.578 330.632 166.578 330.632L166.78 326.913C166.78 326.913 167.288 284.761 165.873 281.529C164.457 278.298 163.364 261.91 164.167 259.395C164.971 256.88 161.254 219.161 161.254 219.161L160.647 203.851L138.631 194.9L148.469 174.384C149.795 171.507 150.938 168.548 151.891 165.526C153.596 160.2 161.544 154.968 161.544 154.968C161.544 154.968 169.688 149.74 172.902 149.937C176.116 150.134 180.341 145.311 180.341 145.311C183.462 137.366 186.9 140.964 186.9 140.964C186.9 141.341 186.572 141.511 186.747 142.14C189.152 150.599 203.822 178.42 204.09 178.906L205.899 222.464L207.708 277.587L209.518 337.778Z" fill="white"/>
<path opacity="0.1" d="M203.478 180.148C201.067 179.141 188.299 164.558 188.299 164.558V161.239C187.834 160.146 185.074 160.813 182.833 161.578L183.795 141.418L184.888 142.326C187.282 150.779 203.199 179.661 203.478 180.148Z" fill="black"/>
<path d="M204.084 178.94C201.669 177.933 188.9 163.35 188.9 163.35V160.031C188.436 158.938 185.675 159.605 183.434 160.37L184.402 140.21L185.495 141.118C187.895 149.571 203.817 178.458 204.084 178.94Z" fill="white"/>
<path opacity="0.1" d="M167.184 251.669C167.485 251.669 182.768 250.062 182.768 250.062C182.768 250.062 192.021 268.264 191.415 272.693C190.808 277.123 189.709 281.043 185.987 280.349C182.265 279.654 165.955 280.895 165.955 280.895L167.184 251.669Z" fill="black"/>
<path d="M166.578 250.46C166.878 250.46 182.161 248.853 182.161 248.853C182.161 248.853 191.409 267.061 190.808 271.484C190.207 275.908 189.097 279.834 185.38 279.14C181.664 278.445 165.348 279.686 165.348 279.686L166.578 250.46Z" fill="white"/>
<path d="M178.094 241.914C178.094 241.914 192.12 249.454 192.42 251.756C192.721 254.058 185.282 250.75 183.675 250.351C182.617 250.096 181.541 249.928 180.456 249.848L169.737 250.138L178.094 241.914Z" fill="#CF6F80"/>
<path opacity="0.1" d="M199.564 181.088C200.379 181.088 201.04 180.427 201.04 179.612C201.04 178.797 200.379 178.136 199.564 178.136C198.749 178.136 198.088 178.797 198.088 179.612C198.088 180.427 198.749 181.088 199.564 181.088Z" fill="black"/>
<path d="M199.564 180.487C200.379 180.487 201.04 179.826 201.04 179.011C201.04 178.195 200.379 177.534 199.564 177.534C198.749 177.534 198.088 178.195 198.088 179.011C198.088 179.826 198.749 180.487 199.564 180.487Z" fill="#3F3D56"/>
<path opacity="0.1" d="M202.281 244.998C203.096 244.998 203.757 244.337 203.757 243.521C203.757 242.706 203.096 242.045 202.281 242.045C201.466 242.045 200.805 242.706 200.805 243.521C200.805 244.337 201.466 244.998 202.281 244.998Z" fill="black"/>
<path d="M202.281 244.391C203.096 244.391 203.757 243.73 203.757 242.915C203.757 242.099 203.096 241.438 202.281 241.438C201.466 241.438 200.805 242.099 200.805 242.915C200.805 243.73 201.466 244.391 202.281 244.391Z" fill="#3F3D56"/>
<path opacity="0.1" d="M201.035 213.044C201.85 213.044 202.51 212.383 202.51 211.567C202.51 210.752 201.85 210.091 201.035 210.091C200.219 210.091 199.559 210.752 199.559 211.567C199.559 212.383 200.219 213.044 201.035 213.044Z" fill="black"/>
<path d="M201.035 212.442C201.85 212.442 202.51 211.781 202.51 210.966C202.51 210.15 201.85 209.489 201.035 209.489C200.219 209.489 199.559 210.15 199.559 210.966C199.559 211.781 200.219 212.442 201.035 212.442Z" fill="#3F3D56"/>
<path d="M235.054 249.542C235.054 249.542 236.06 251.051 235.054 251.756C234.048 252.461 235.152 254.168 235.152 254.168C235.152 254.168 232.644 255.638 233.748 256.962C234.852 258.285 234.152 264.261 234.152 264.261L231.135 269.259C231.135 269.259 231.315 272.48 231.326 276.832C231.326 283.623 230.927 293.171 228.719 297.523L229.025 333.234C229.025 333.234 218.46 337.095 209.616 335.919L208.304 278.615C208.304 278.615 210.217 246.119 210.922 239.885C211.335 236.649 211.503 233.386 211.425 230.125C211.425 230.125 211.125 220.37 210.113 215.842C210.113 215.842 209.02 196.229 208.911 190.799C208.862 188.202 208.998 180.623 209.151 173.416C209.321 165.537 209.512 158.106 209.512 158.106L207.517 142.315C207.517 142.315 209.512 142.112 210.113 142.916C210.383 143.168 210.676 143.393 210.988 143.589V143.589C214.431 145.918 226.598 153.081 226.598 153.081C226.598 153.081 233.332 155.76 234.945 159.599C236.557 163.437 237.678 166.161 238.459 167.254C239.241 168.348 239.667 173.488 239.667 173.488C239.667 173.488 241.985 182.947 243.794 184.549C245.603 186.151 246.926 196.344 246.926 196.344L230.938 208.92C230.938 208.92 229.534 229.841 229.233 230.65C228.932 231.459 235.054 249.542 235.054 249.542Z" fill="white"/>
<path d="M235.661 249.542C235.661 249.542 236.661 251.051 235.661 251.756C234.661 252.462 235.754 254.168 235.754 254.168C235.754 254.168 233.261 255.655 234.354 256.978C235.448 258.302 234.759 264.278 234.759 264.278L231.742 269.276C231.742 269.276 231.922 272.496 231.939 276.849C231.939 283.64 231.54 293.187 229.331 297.54L229.632 333.251C229.632 333.251 219.05 337.112 210.217 335.936L208.911 278.632C208.911 278.632 210.824 246.135 211.529 239.902C211.942 236.666 212.108 233.403 212.026 230.142C212.026 230.142 211.726 220.387 210.72 215.859C210.72 215.859 209.627 196.246 209.512 190.816C209.463 188.219 209.605 180.64 209.753 173.433C209.922 165.554 210.113 158.123 210.113 158.123L207.479 142.118C207.479 142.118 210.113 142.118 210.72 142.933C210.987 143.188 211.28 143.413 211.595 143.605C215.038 145.935 227.211 153.098 227.211 153.098C227.211 153.098 233.939 155.777 235.551 159.616C237.164 163.454 238.284 166.177 239.071 167.271C239.859 168.364 240.274 173.504 240.274 173.504C240.274 173.504 242.592 182.964 244.401 184.566C246.21 186.168 247.516 196.339 247.516 196.339L231.529 208.915C231.529 208.915 230.124 229.835 229.818 230.645C229.512 231.454 235.661 249.542 235.661 249.542Z" fill="white"/>
<path opacity="0.1" d="M216.514 162.765L217.957 166.975L210.359 174.63C210.529 166.757 210.72 159.32 210.72 159.32L208.085 143.315C208.085 143.315 210.72 143.315 211.327 144.13C211.593 144.384 211.886 144.608 212.201 144.797L218.662 163.443L216.514 162.765Z" fill="black"/>
<path d="M215.907 161.557L217.356 165.767L209.758 173.423C209.927 165.543 210.119 158.112 210.119 158.112L207.479 142.107C207.479 142.107 210.119 142.107 210.72 142.922C210.988 143.175 211.281 143.401 211.595 143.595L218.061 162.235L215.907 161.557Z" fill="white"/>
<path opacity="0.1" d="M215.907 119.896C215.911 121.867 215.602 123.825 214.989 125.698C214.886 125.714 214.78 125.709 214.679 125.684C214.577 125.659 214.482 125.613 214.399 125.55C214.256 120.629 211.835 116.009 208.856 112.077C208.02 110.89 207.006 109.839 205.85 108.961C204.681 108.082 203.228 107.671 201.772 107.807C200.133 108.031 198.684 109.146 197.028 109.289C194.842 109.469 192.885 107.954 190.715 107.878C189.833 107.886 188.963 108.083 188.162 108.454C187.362 108.826 186.65 109.364 186.074 110.032C184.934 111.381 184.088 112.953 183.587 114.647C182.728 117.216 182.26 119.9 182.199 122.609C182.172 124.14 182.024 126.059 180.603 126.617C180.71 125.491 180.582 124.355 180.227 123.281C179.873 122.207 179.299 121.218 178.543 120.378L178.51 120.345C178.51 120.192 178.51 120.05 178.51 119.896C178.467 117.413 178.92 114.945 179.84 112.638C180.761 110.331 182.132 108.231 183.873 106.459C185.614 104.688 187.69 103.281 189.98 102.32C192.27 101.36 194.728 100.865 197.211 100.865C199.694 100.865 202.153 101.36 204.443 102.32C206.733 103.281 208.809 104.688 210.55 106.459C212.29 108.231 213.661 110.331 214.582 112.638C215.503 114.945 215.955 117.413 215.913 119.896H215.907Z" fill="black"/>
<path d="M204.954 90.1882C202.113 88.8516 198.883 88.5989 195.869 89.4774C194.355 89.9257 192.929 90.653 191.393 91.0193C188.113 91.8122 184.287 90.9537 181.472 92.873C179.909 93.9666 178.969 95.6945 178.094 97.3731L175.908 101.54C174.716 103.82 173.514 106.138 173.017 108.648C172.519 111.158 172.82 113.968 174.41 115.986C175.569 117.457 177.28 118.381 178.537 119.764C179.29 120.606 179.861 121.594 180.215 122.667C180.569 123.739 180.697 124.873 180.592 125.998C182.019 125.451 182.155 123.526 182.188 121.995C182.249 119.287 182.717 116.603 183.577 114.034C184.075 112.339 184.922 110.767 186.064 109.419C186.64 108.751 187.352 108.213 188.152 107.842C188.952 107.471 189.822 107.274 190.704 107.265C192.89 107.341 194.853 108.85 197.017 108.67C198.657 108.533 200.111 107.412 201.761 107.194C203.217 107.056 204.671 107.467 205.839 108.347C206.995 109.225 208.007 110.276 208.84 111.464C211.824 115.396 214.246 120.005 214.388 124.937C215.005 125.391 215.896 124.8 216.202 124.101C216.508 123.401 216.519 122.58 216.907 121.913C217.356 121.142 218.214 120.732 218.886 120.153C220.591 118.682 221.018 116.205 220.952 113.957C220.887 111.71 220.449 109.43 220.876 107.221C221.133 105.865 221.712 104.596 222.029 103.257C222.346 101.917 222.384 100.413 221.635 99.2596C220.542 97.5645 218.241 97.231 216.235 97.0724C213.956 96.8755 211.917 97.1271 210.463 95.2078C209.781 94.2063 209.013 93.2659 208.167 92.3973C207.878 92.1129 204.954 90.3085 204.954 90.1882Z" fill="#512E4E"/>
<path opacity="0.1" d="M145.545 205.498L139.833 194.934L138.024 211.234C138.024 211.234 139.03 218.473 138.828 219.583C138.625 220.693 142.949 230.645 142.949 230.645C142.949 230.645 157.231 256.093 163.063 257.405L182.768 243.32L177.542 236.682C177.542 236.682 175.733 235.976 175.279 236.682C175.279 236.682 165.577 219.982 164.572 218.774C163.566 217.566 163.763 215.154 163.763 215.154C163.763 215.154 162.254 213.547 162.757 212.037C163.26 210.528 159.844 205.295 159.844 205.295L162.959 202.381L145.545 205.498Z" fill="black"/>
<path d="M140.134 193.73L138.625 194.933L136.816 211.233C136.816 211.233 137.822 218.473 137.62 219.583C137.417 220.693 141.746 230.645 141.746 230.645C141.746 230.645 156.023 256.093 161.855 257.405L181.565 243.32L176.334 236.681C176.334 236.681 174.525 235.976 174.071 236.681C174.071 236.681 164.369 219.982 163.364 218.774C162.358 217.565 162.56 215.154 162.56 215.154C162.56 215.154 161.052 213.546 161.555 212.037C162.057 210.528 158.636 205.295 158.636 205.295L161.751 202.381L140.134 193.73Z" fill="white"/>
<path opacity="0.1" d="M233.748 257.585C234.841 258.914 234.152 264.879 234.152 264.879L231.135 269.877C231.135 269.877 231.315 273.103 231.326 277.45L226.254 279.036C225.796 279.179 225.31 279.211 224.837 279.128C224.364 279.045 223.917 278.85 223.535 278.56C223.152 278.269 222.845 277.891 222.638 277.457C222.431 277.024 222.331 276.547 222.346 276.067L223.22 247.847L235.054 252.374C234.048 253.074 235.152 254.791 235.152 254.791C235.152 254.791 232.644 256.256 233.748 257.585Z" fill="black"/>
<path d="M234.354 256.978C235.448 258.307 234.759 264.278 234.759 264.278L231.742 269.276C231.742 269.276 231.922 272.496 231.939 276.849L226.773 278.462C226.324 278.601 225.849 278.632 225.386 278.55C224.923 278.469 224.486 278.277 224.111 277.993C223.737 277.708 223.436 277.338 223.234 276.914C223.031 276.49 222.933 276.023 222.947 275.553L223.827 247.245L235.666 251.773C234.655 252.473 235.759 254.184 235.759 254.184C235.759 254.184 233.261 255.655 234.354 256.978Z" fill="white"/>
<path d="M238.273 243.527C238.273 243.527 237.47 248.661 235.459 248.962C233.447 249.263 232.545 257.268 230.539 256.984C228.533 256.699 229.862 249.542 229.933 248.153C230.004 246.764 227.746 241.012 229.435 239.705C231.124 238.398 236.47 239.705 236.47 239.705L238.273 243.527Z" fill="#CF6F80"/>
<path opacity="0.1" d="M242.553 203.988L246.347 196.333C246.347 196.333 247.855 202.167 247.855 205.284C247.855 208.401 249.965 208.707 249.965 208.707C249.965 208.707 252.277 211.441 251.058 213.431C249.839 215.422 249.347 220.376 249.347 220.376C249.347 220.376 249.746 229.83 247.937 231.137C246.128 232.443 245.751 235.566 245.751 235.566C245.751 235.566 242.428 241.498 242.531 242.909C242.635 244.32 237.907 253.872 237.907 253.872C237.907 253.872 240.219 242.002 226.746 236.873C226.746 236.873 226.642 232.843 227.648 231.738C228.654 230.634 230.222 230.131 229.238 224.548C228.255 218.965 228.954 212.294 228.954 210.954C228.954 209.615 231.971 201.26 231.971 201.26L242.553 203.988Z" fill="black"/>
<path d="M244.193 195.239L247.505 196.333C247.505 196.333 249.019 202.167 249.019 205.284C249.019 208.401 251.129 208.707 251.129 208.707C251.129 208.707 253.441 211.441 252.222 213.431C251.003 215.422 250.517 220.376 250.517 220.376C250.517 220.376 250.916 229.83 249.107 231.136C247.298 232.443 246.893 235.566 246.893 235.566C246.893 235.566 243.575 241.498 243.679 242.909C243.783 244.32 239.05 253.872 239.05 253.872C239.05 253.872 241.367 242.001 227.888 236.872C227.888 236.872 227.79 232.842 228.796 231.738C229.801 230.633 231.37 230.13 230.386 224.548C229.402 218.965 230.102 212.294 230.102 210.954C230.102 209.615 233.119 201.259 233.119 201.259L244.193 195.239Z" fill="white"/>
<path opacity="0.1" d="M171.032 393.656C171.032 393.656 176.312 390.337 179.778 392.748C183.243 395.16 171.032 393.656 171.032 393.656Z" fill="black"/>
<path opacity="0.1" d="M212.059 383.393C212.059 383.393 216.732 382.791 220.657 387.018C224.581 391.245 212.059 383.393 212.059 383.393Z" fill="black"/>
<g opacity="0.1">
<path opacity="0.1" d="M218.897 118.956C218.225 119.536 217.361 119.951 216.913 120.722C216.53 121.384 216.519 122.199 216.213 122.91C215.907 123.62 215.016 124.2 214.399 123.752C214.256 118.83 211.83 114.21 208.851 110.273C208.018 109.085 207.006 108.033 205.85 107.156C204.68 106.276 203.224 105.865 201.767 106.003C200.127 106.227 198.684 107.342 197.028 107.479C194.842 107.665 192.879 106.15 190.709 106.074C189.828 106.082 188.958 106.28 188.159 106.652C187.359 107.025 186.649 107.564 186.074 108.234C184.933 109.58 184.086 111.15 183.587 112.843C182.729 115.412 182.261 118.096 182.199 120.804C182.166 122.33 182.024 124.233 180.614 124.801C180.647 125.205 180.647 125.611 180.614 126.015C182.035 125.469 182.177 123.544 182.21 122.013C182.271 119.304 182.739 116.621 183.598 114.051C184.097 112.357 184.944 110.785 186.085 109.436C186.661 108.769 187.372 108.231 188.171 107.86C188.97 107.488 189.839 107.291 190.72 107.282C192.907 107.359 194.874 108.868 197.039 108.687C198.679 108.551 200.133 107.43 201.778 107.211C203.235 107.073 204.691 107.485 205.861 108.365C207.016 109.242 208.029 110.293 208.862 111.481C211.841 115.413 214.267 120.022 214.409 124.955C215.027 125.408 215.918 124.818 216.224 124.118C216.53 123.418 216.541 122.598 216.924 121.931C217.372 121.16 218.236 120.75 218.908 120.17C220.613 118.699 221.04 116.222 220.974 113.975C220.974 113.904 220.974 113.833 220.974 113.767C220.87 115.714 220.351 117.699 218.897 118.956Z" fill="black"/>
<path opacity="0.1" d="M178.548 118.568C177.291 117.184 175.575 116.26 174.421 114.795C173.45 113.497 172.895 111.936 172.831 110.316C172.659 112.34 173.224 114.358 174.421 115.998C175.575 117.469 177.291 118.393 178.548 119.776C179.755 121.129 180.48 122.844 180.609 124.653C180.692 123.552 180.553 122.446 180.199 121.4C179.845 120.354 179.283 119.391 178.548 118.568V118.568Z" fill="black"/>
<path opacity="0.1" d="M222.04 102.06C221.717 103.4 221.143 104.674 220.881 106.024C220.726 106.927 220.669 107.844 220.712 108.758C220.73 108.237 220.787 107.718 220.881 107.206C221.143 105.85 221.717 104.581 222.04 103.241C222.228 102.502 222.289 101.737 222.22 100.978C222.186 101.342 222.126 101.704 222.04 102.06V102.06Z" fill="black"/>
</g>
<path opacity="0.1" d="M72.5484 415.888C101.963 415.888 125.808 412.057 125.808 407.331C125.808 402.605 101.963 398.773 72.5484 398.773C43.1341 398.773 19.289 402.605 19.289 407.331C19.289 412.057 43.1341 415.888 72.5484 415.888Z" fill="#F2994A"/>
<path d="M74.2647 243.401H70.8376V320.593H74.2647V243.401Z" fill="#535461"/>
<path d="M95.8002 320.357L95.587 323.835L95.281 328.756L95.1552 330.801L94.8546 335.722L94.7234 337.767L94.4173 342.689L90.9629 398.5C90.8128 400.901 89.7536 403.155 88.001 404.803C86.2483 406.451 83.9339 407.368 81.5288 407.369H63.568C61.1635 407.368 58.8497 406.45 57.098 404.803C55.3462 403.155 54.2882 400.901 54.1394 398.5L50.7014 342.65L50.3953 337.729L50.2696 335.684L49.9635 330.763L49.8378 328.718L49.5317 323.797L49.313 320.319C49.2751 319.65 49.3742 318.98 49.6043 318.35C49.8345 317.721 50.1908 317.145 50.6515 316.658C51.1121 316.171 51.6673 315.783 52.2831 315.519C52.8989 315.254 53.5622 315.118 54.2323 315.119H90.9684C91.636 315.125 92.2954 315.267 92.9058 315.538C93.5162 315.809 94.0647 316.201 94.5175 316.692C94.9702 317.183 95.3176 317.762 95.5383 318.392C95.7589 319.022 95.848 319.691 95.8002 320.357V320.357Z" fill="#3F3D56"/>
<path d="M95.587 323.835L95.281 328.74H49.8159L49.5098 323.835H95.587Z" fill="#9D9CB5"/>
<path d="M95.1552 330.785L94.8546 335.695H50.2477L49.9416 330.785H95.1552Z" fill="#9D9CB5"/>
<path d="M94.7234 337.746L94.4228 342.651H50.6795L50.3734 337.746H94.7234Z" fill="#9D9CB5"/>
<path d="M44.279 272.332C64.2348 286.778 72.5648 309.372 72.5648 309.372C72.5648 309.372 48.515 308.546 28.5537 294.1C8.59233 279.654 0.278748 257.065 0.278748 257.065C0.278748 257.065 24.3176 257.886 44.279 272.332Z" fill="#F2994A"/>
<path d="M0.262375 257.065C0.262375 257.065 25.2305 270.927 33.2379 282.404C41.2454 293.881 72.5648 309.372 72.5648 309.372" stroke="#535461" stroke-width="2" stroke-miterlimit="10"/>
<path d="M57.162 243.232C68.0227 251.09 72.5648 263.387 72.5648 263.387C72.5648 263.387 59.4741 262.939 48.6079 255.081C37.7418 247.224 33.2106 234.921 33.2106 234.921C33.2106 234.921 46.2959 235.369 57.162 243.232Z" fill="#F2994A"/>
<path d="M33.2106 234.921C33.2106 234.921 46.7987 242.467 51.155 248.711C55.5113 254.956 72.5648 263.387 72.5648 263.387" stroke="#535461" stroke-width="2" stroke-miterlimit="10"/>
<path d="M88.3338 262.763C75.8553 276.482 73.2153 294.412 73.2153 294.412C73.2153 294.412 90.8099 290.092 103.278 276.367C115.745 262.643 118.396 244.719 118.396 244.719C118.396 244.719 100.812 249.044 88.3338 262.763Z" fill="#F2994A"/>
<path d="M118.407 244.725C118.407 244.725 102.152 258.788 98.0194 268.477C93.8872 278.167 73.2153 294.412 73.2153 294.412" stroke="#535461" stroke-width="2" stroke-miterlimit="10"/>
<path d="M546.406 257.935C546.406 257.935 537.382 213.021 540.836 207.433C540.836 207.433 540.962 202.238 540.754 195.616C540.754 195.365 540.754 195.113 540.754 194.856C541.362 195.262 541.996 195.627 542.651 195.95C545.834 197.586 549.488 198.058 552.982 197.284L550.249 194.238C549.593 193.511 548.91 192.724 548.767 191.761C548.625 190.799 549.019 189.941 549.358 189.082C551.954 182.521 552.091 174.269 547.089 169.261C542.864 165.05 541.837 159.615 537.251 155.771C533.9 152.955 532.058 148.827 530.32 144.835C528.85 141.462 527.369 138.061 526.527 134.484C525.871 131.69 525.609 128.798 524.707 126.069C523.805 123.341 522.116 120.689 519.476 119.469C518.536 119.037 517.492 118.791 516.634 118.217C515.508 117.457 514.83 116.221 514.015 115.139C509.878 109.671 496.022 112.891 489.463 115.111C487.68 115.671 486.028 116.586 484.609 117.802L484.669 117.703C484.718 117.621 484.779 117.539 484.833 117.457C484.115 118.038 483.495 118.73 482.997 119.508C482.04 121.022 481.641 122.789 480.843 124.429C479.881 126.37 474.53 131.789 476.831 133.971C476.992 134.117 477.177 134.235 477.378 134.32C478.242 134.68 479.193 134.775 480.111 134.594L480.012 134.829C479.226 136.754 478.824 138.814 478.826 140.893C478.826 149.877 486.232 157.16 495.377 157.16C497.096 157.162 498.805 156.898 500.444 156.378C500.482 156.586 500.515 156.794 500.553 157.002C500.553 157.084 500.58 157.166 500.591 157.248L500.302 157.652C500.287 157.627 500.271 157.604 500.252 157.581L491.671 169.578C490.359 170.502 482.805 175.97 482.379 180.071C481.931 184.56 481.483 189.815 481.483 189.815L481.422 190.941C481.047 191.255 480.609 191.483 480.137 191.611C479.665 191.738 479.171 191.762 478.69 191.679C476.011 191.242 476.011 201.522 476.011 201.522C476.011 201.522 474.229 203.162 473.005 201.741C471.781 200.319 468.545 205.136 468.545 205.136L448.267 206.011L447.802 206.038L446.709 202.654C446.591 202.297 446.337 202.001 446.003 201.83C445.668 201.659 445.28 201.627 444.921 201.741C444.837 201.768 444.754 201.803 444.675 201.844L444.599 201.888L444.457 201.987L444.386 202.052C444.347 202.088 444.31 202.126 444.276 202.167L444.211 202.244L444.178 202.276C444.052 202.451 443.968 202.653 443.934 202.865C443.9 203.078 443.916 203.296 443.981 203.501L444.921 206.405C441.008 207.192 437.007 209.412 440.27 215.525L423.73 212.469L429.081 216.963L456.706 222.666C456.34 223.323 456.58 224.274 457.722 225.614C462.642 231.393 471.606 232.963 475.213 233.367C476.166 235.499 477.356 237.517 478.761 239.382L478.449 245.14C478.449 245.14 469.316 289.026 467.643 291.251C468.487 290.294 469.26 289.276 469.955 288.206C467.304 297.222 463.598 309.563 462.625 311.412C461.062 314.364 459.614 326.312 461.396 327.077C461.942 327.312 463.505 327.198 465.735 327.028V328.018L465.637 365.523C465.637 365.523 466.085 388.526 464.855 390.719C463.626 392.912 463.298 397.51 463.298 397.51C463.298 397.51 458.378 406.582 454.481 410.229C454.455 410.257 454.425 410.283 454.394 410.305L454.274 409.452C454.274 409.452 449.589 415.369 439.226 415.035C439.226 415.035 432.989 419.092 442.238 419.311C451.486 419.53 463.298 418.983 463.298 418.983C463.298 418.983 471.546 406.407 478.455 408.047V417.578H480.57V407.894C481.551 407.248 482.39 406.409 483.038 405.429C483.685 404.449 484.127 403.347 484.336 402.191C484.517 400.999 484.384 399.781 483.951 398.656C483.518 397.531 482.799 396.539 481.865 395.777C481.446 395.398 481.109 394.936 480.877 394.42C480.645 393.904 480.521 393.346 480.515 392.781L480.439 392.846C480.439 392.655 480.389 392.458 480.368 392.256C479.761 387.334 479.001 377.18 481.685 369.667C485.363 359.366 486.478 345.018 483.8 336.477C482.936 333.747 482.226 330.97 481.674 328.16C481.608 327.805 481.548 327.466 481.494 327.148C483.324 327.396 485.137 327.762 486.921 328.242C493.125 329.954 506.697 330.271 518.284 330.178C518.312 330.495 518.344 330.828 518.383 331.162C518.589 333.48 519.021 335.773 519.673 338.008C521.127 342.382 521.793 361.668 521.793 361.668C521.793 361.668 523.668 377.525 522.646 383.977C522.099 387.564 521.553 391.167 521.241 394.787V394.858C521.241 394.858 518.17 403.607 515.923 408.359C515.868 408.479 515.808 408.599 515.754 408.714C515.155 408.769 514.565 408.899 513.999 409.102C513.999 409.102 510.987 415.117 507.987 416.112C504.986 417.108 505.981 420.383 512.775 419.18C519.569 417.977 529.828 416.993 529.828 416.993L530.271 410.858L532.359 408.244L531.812 414.363L534.037 413.925L533.742 406.483L537.158 402.207C537.158 402.207 541.285 398.533 535.152 391.304V391.463C535.086 391.359 535.026 391.249 534.955 391.146V391.113C533.939 389.538 533.13 386.602 534.611 381.391C537.289 371.975 538.847 363.428 538.847 363.428C538.847 363.428 544.827 340.534 537.639 329.702H537.956C537.219 328.178 536.699 326.558 536.409 324.89C536.373 324.693 536.34 324.491 536.311 324.283C541.629 323.977 546.849 323.015 551.107 320.937C551.09 320.915 548.527 266.585 546.406 257.935ZM478.886 220.042V220.151L477.793 220.206L478.886 220.042ZM475.137 220.561C474.957 220.601 474.789 220.682 474.645 220.796C474.175 221.462 473.88 222.234 473.787 223.044L472.081 222.661C472.081 222.661 470.884 222.404 469.163 222.114L468.348 221.294C470.589 221.108 472.918 220.835 475.137 220.561V220.561Z" fill="url(#paint1_linear)"/>
<path d="M531.561 406.56L530.91 414.309L533.091 413.871L532.763 405.467L531.561 406.56Z" fill="#1D2366"/>
<path d="M481.805 369.772C479.176 377.263 479.919 387.373 480.51 392.283C480.728 394.099 480.931 395.203 480.931 395.203C480.931 395.203 477.001 404.16 476.673 404.499C476.345 404.838 465.107 411.7 465.107 411.7L457.252 416.288C457.252 416.288 449.283 412.794 453.104 411.591C453.884 411.277 454.588 410.798 455.164 410.185C458.991 406.549 463.795 397.511 463.795 397.511C463.795 397.511 464.123 392.923 465.326 390.741C466.528 388.559 466.091 365.632 466.091 365.632L466.184 328.259V323.387L481.133 323.496C481.227 325.15 481.443 326.795 481.778 328.417C482.314 331.218 483.01 333.985 483.86 336.707C486.495 345.231 485.402 359.508 481.805 369.772Z" fill="#FFB0B1"/>
<path opacity="0.1" d="M480.931 395.203C480.931 395.203 477.001 404.159 476.673 404.498C476.345 404.837 465.107 411.7 465.107 411.7L457.252 416.287C457.252 416.287 449.283 412.793 453.104 411.59C453.884 411.277 454.588 410.798 455.164 410.185L455.503 412.575L458.122 412.465L480.532 392.294C480.728 394.098 480.931 395.203 480.931 395.203Z" fill="black"/>
<path d="M480.657 392.803L458.122 413.111L455.503 413.22L454.957 409.393C454.957 409.393 450.376 415.287 440.199 414.959C440.199 414.959 434.088 419 443.145 419.218C452.202 419.437 463.768 418.89 463.768 418.89C463.768 418.89 471.846 406.314 478.608 407.954V417.452H480.685V407.867C481.65 407.217 482.474 406.378 483.108 405.4C483.741 404.423 484.17 403.328 484.369 402.18C484.548 400.998 484.421 399.79 483.999 398.671C483.577 397.553 482.874 396.562 481.958 395.794C481.549 395.41 481.223 394.947 480.999 394.433C480.775 393.918 480.659 393.364 480.657 392.803V392.803Z" fill="#1D2366"/>
<path d="M533.638 381.451C532.184 386.646 532.977 389.571 533.971 391.14V391.173C535.247 393.111 536.135 395.278 536.584 397.554L536.671 398.046L526.417 413.001L520.853 415.189C520.853 415.189 511.906 412.132 513.54 411.257C513.95 411.044 514.589 409.906 515.322 408.337C517.508 403.607 520.525 394.88 520.525 394.88V394.809C520.842 391.206 521.345 387.614 521.903 384.037C522.903 377.602 521.066 361.805 521.066 361.805C521.066 361.805 520.411 342.596 518.989 338.227C518.348 336.006 517.921 333.728 517.716 331.425C517.421 328.691 517.355 326.438 517.355 326.438C517.355 326.438 523.247 318.236 534.048 327.094C534.912 327.801 535.671 328.625 536.305 329.544C543.766 340.162 537.759 363.554 537.759 363.554C537.759 363.554 536.256 372.063 533.638 381.451Z" fill="#FFB0B1"/>
<path opacity="0.1" d="M536.688 398.046L526.434 413.001L520.87 415.188C520.87 415.188 511.922 412.132 513.556 411.257C513.966 411.043 514.606 409.906 515.338 408.337C519.126 408.304 521.088 411.913 521.088 411.913L525.887 411.147C525.887 411.147 532.217 398.702 533.638 397.942C535.059 397.182 533.857 392.261 533.857 392.261V391.009C533.895 391.053 533.928 391.102 533.971 391.145V391.178C535.247 393.116 536.135 395.283 536.584 397.559L536.688 398.046Z" fill="black"/>
<path d="M521.416 412.236C521.416 412.236 518.683 407.216 513.447 409.07C513.447 409.07 510.501 415.085 507.555 416.058C504.609 417.031 505.593 420.312 512.25 419.114C518.907 417.917 528.943 416.927 528.943 416.927L529.38 410.809L536.147 402.186C536.147 402.186 540.181 398.527 534.179 391.326V392.578C534.179 392.578 535.382 397.5 533.96 398.26C532.539 399.02 526.232 411.47 526.232 411.47L521.416 412.236Z" fill="#1D2366"/>
<path opacity="0.1" d="M481.149 323.485C481.243 325.139 481.459 326.784 481.794 328.406C475.64 327.504 469.928 327.953 466.184 328.248V323.376L481.149 323.485Z" fill="black"/>
<path opacity="0.1" d="M536.912 330.905C536.912 330.905 528.167 331.331 517.738 331.419C517.443 328.685 517.377 326.432 517.377 326.432C517.377 326.432 523.269 318.23 534.07 327.088C534.933 327.795 535.693 328.619 536.327 329.538C536.496 330.004 536.692 330.46 536.912 330.905V330.905Z" fill="black"/>
<path d="M536.912 329.921C536.912 329.921 498.607 331.775 486.932 328.499C475.257 325.224 463.686 328.062 461.942 327.302C460.199 326.542 461.614 314.638 463.145 311.691C464.675 308.744 473.071 278.938 473.071 278.938L481.149 236.802L489.66 234.456L490.261 234.286L505.09 230.196L515.956 227.194C515.956 227.194 537.562 311.582 535.709 317.804C535.037 320.187 534.928 322.694 535.392 325.126C535.676 326.787 536.187 328.4 536.912 329.921V329.921Z" fill="#1D2366"/>
<path d="M452.989 207.985C452.989 207.985 445.337 216.187 451.131 220.759C456.924 225.33 460.734 221.196 460.734 221.196L452.989 207.985Z" fill="#C7DAF5"/>
<path opacity="0.1" d="M452.989 207.985C452.989 207.985 445.337 216.187 451.131 220.759C456.924 225.33 460.734 221.196 460.734 221.196L452.989 207.985Z" fill="black"/>
<path d="M514.813 154.06C514.813 154.06 513.917 154.913 512.567 156.17C510.643 157.969 507.795 160.6 505.27 162.803C501.772 165.849 498.886 168.085 499.919 166.177C500.952 164.269 500.755 160.944 500.241 157.833C500.203 157.625 500.17 157.417 500.132 157.215C499.707 154.93 499.143 152.673 498.443 150.456C498.443 150.456 504.095 143.151 507.221 140.27C508.386 139.176 509.2 138.728 509.249 139.488C509.304 140.51 510.069 142.768 511.02 145.163C511.047 145.24 511.075 145.311 511.108 145.388C511.742 147.028 512.458 148.712 513.086 150.167C514.048 152.398 514.813 154.06 514.813 154.06Z" fill="#FFB0B1"/>
<path opacity="0.1" d="M511.108 145.388C510.576 148.246 509.288 150.908 507.376 153.098C505.465 155.287 503.001 156.922 500.241 157.833C499.807 155.337 499.206 152.873 498.443 150.457C498.443 150.457 509.085 136.705 509.249 139.488C509.287 140.543 510.118 142.884 511.108 145.388Z" fill="black"/>
<path opacity="0.1" d="M499.181 161.508L500.558 159.566C500.558 159.566 501.471 165.133 504.827 162.678C508.183 160.223 508.347 181.154 508.347 181.154L504.745 235.03L478.717 233.472L479.455 207.438L482.401 194.315L489.687 175.238L494.021 168.933L499.181 161.508Z" fill="black"/>
<path d="M508.347 181.488L505.068 230.202L504.723 235.364L490.212 234.494L489.665 234.462L478.733 233.805L479.471 207.767L482.417 194.644L489.703 175.566L494.038 169.262L499.197 161.809L500.575 159.873C500.575 159.873 501.488 165.439 504.844 162.984L504.915 162.935C508.194 160.857 508.347 181.488 508.347 181.488Z" fill="#1D2366"/>
<path d="M482.783 190.083C482.783 190.083 481.477 192.817 478.854 192.374C476.23 191.931 476.235 202.216 476.235 202.216C476.235 202.216 474.492 203.857 473.289 202.435C472.087 201.013 468.917 205.82 468.917 205.82L449.054 206.695C449.054 206.695 457.892 210.736 456.159 222.962C456.159 222.962 486.167 221.103 487.151 218.265C488.135 215.427 482.783 190.083 482.783 190.083Z" fill="white"/>
<path opacity="0.03" d="M482.783 190.083C482.783 190.083 481.477 192.817 478.854 192.374C476.23 191.931 476.235 202.216 476.235 202.216C476.235 202.216 474.492 203.857 473.289 202.435C472.087 201.013 468.917 205.82 468.917 205.82L449.054 206.695C449.054 206.695 457.892 210.736 456.159 222.962C456.159 222.962 486.167 221.103 487.151 218.265C488.135 215.427 482.783 190.083 482.783 190.083Z" fill="black"/>
<path d="M425.058 213.12L430.295 217.593L473.399 226.653L468.053 221.196L425.058 213.12Z" fill="white"/>
<path d="M499.263 163.23C498.547 164.323 496.497 169.923 494.787 174.811C493.36 178.885 492.168 182.466 492.168 182.466C492.168 182.466 489.386 200.587 487.965 203.862C486.544 207.138 487.315 219.911 487.315 219.911L482.018 251.455C482.018 251.455 479.619 267.723 475.913 277.439C472.256 287.003 468.184 291.486 468.058 291.629C469.698 289.409 478.635 245.698 478.635 245.698L481.586 190.57C481.586 190.57 482.018 185.331 482.456 180.853C482.893 176.375 491.747 170.262 491.747 170.262L500.285 158.117C501.143 159.265 500.569 161.267 499.263 163.23Z" fill="white"/>
<path d="M477.001 234.078C477.001 234.078 464.429 233.531 458.34 226.215C452.251 218.899 472.415 223.295 472.415 223.295L477.656 224.498L477.001 234.078Z" fill="#FFB0B1"/>
<path opacity="0.1" d="M535.709 317.81C535.036 320.193 534.928 322.699 535.392 325.131C521.679 326.105 507.008 322.397 507.008 322.397C504.275 324.913 497.077 328.62 497.077 328.62L493.152 279.955C490.643 273.394 489.66 239.016 489.66 239.016C489.66 239.016 489.884 237.217 490.206 234.522C490.206 234.456 490.206 234.385 490.233 234.319C491.212 226.79 493.152 212.655 494.103 210.747C495.415 208.122 490.069 201.14 490.069 201.14L492.502 180.389L492.797 177.884C497.924 175.593 501.854 168.277 501.854 168.277L504.871 162.99C508.151 160.885 508.32 181.515 508.32 181.515L505.04 230.229L515.907 227.227C515.907 227.227 537.562 311.587 535.709 317.81Z" fill="black"/>
<path d="M549.784 321.172C534.835 328.597 507.664 321.719 507.664 321.719C504.931 324.234 497.733 327.941 497.733 327.941L493.803 279.276C491.299 272.715 490.315 238.338 490.315 238.338C490.315 238.338 493.475 212.687 494.787 210.068C495.169 209.303 494.983 208.165 494.53 206.94C492.299 201.111 491.479 194.836 492.136 188.628L493.185 179.71L493.475 177.211C498.607 174.915 502.537 167.598 502.537 167.598L505.27 162.809L510.299 153.983L512.682 149.806L513.086 150.172L516.174 152.972C516.174 152.972 517.486 154.065 519.454 155.706C523.734 159.314 531.129 165.668 534.944 169.556C538.3 172.979 539.361 186.293 539.667 196.316C539.869 202.916 539.749 208.089 539.749 208.089C536.365 213.661 545.215 258.394 545.215 258.394C547.275 267.039 549.784 321.172 549.784 321.172Z" fill="white"/>
<path opacity="0.03" d="M521.088 167.489C521.088 167.489 510.829 187.026 512.02 194.452C513.212 201.877 516.601 210.281 514.967 212.244C514.405 212.988 513.679 213.592 512.846 214.008C512.012 214.425 511.094 214.643 510.162 214.645C508.522 214.754 504.15 217.811 504.15 218.139C504.15 218.467 500.11 218.467 496.497 219.998C492.884 221.529 487.55 222.398 487.55 222.398C487.55 222.398 477.165 222.07 476.197 223.055C475.23 224.039 474.235 229.928 476.306 234.625C478.378 239.322 480.679 242.827 482.417 243.467C484.155 244.106 495.186 240.41 504.133 239.535C513.081 238.66 522.794 231.568 522.794 231.568C522.794 231.568 533.49 227.741 535.365 221.305C537.24 214.869 533.075 179.497 533.075 179.497C533.075 179.497 529.927 163.011 521.088 167.489Z" fill="black"/>
<path opacity="0.03" d="M519.776 165.849C519.776 165.849 509.517 185.391 510.72 192.811C511.922 200.231 515.3 208.641 513.66 210.61C513.101 211.354 512.376 211.959 511.543 212.375C510.71 212.792 509.792 213.009 508.861 213.01C507.221 213.119 502.849 216.176 502.849 216.504C502.849 216.832 498.809 216.832 495.196 218.358C491.584 219.883 486.249 220.758 486.249 220.758C486.249 220.758 475.864 220.43 474.902 221.414C473.94 222.399 472.934 228.293 475.011 232.985C477.088 237.676 479.384 241.187 481.122 241.826C482.86 242.466 493.89 238.77 502.838 237.9C511.785 237.031 521.498 229.928 521.498 229.928C521.498 229.928 532.189 226.1 534.042 219.67C535.895 213.24 531.752 177.856 531.752 177.856C531.752 177.856 528.615 161.376 519.776 165.849Z" fill="black"/>
<path d="M520.766 166.505C520.766 166.505 510.506 186.047 511.709 193.467C512.911 200.887 516.289 209.297 514.655 211.26C514.095 212.006 513.37 212.612 512.536 213.03C511.702 213.447 510.783 213.665 509.85 213.666C508.211 213.775 503.838 216.832 503.838 217.155C503.838 217.477 499.804 217.483 496.186 219.014C492.567 220.545 487.238 221.414 487.238 221.414C487.238 221.414 476.853 221.086 475.886 222.07C474.918 223.055 473.923 228.949 475.995 233.641C478.066 238.332 480.368 241.843 482.106 242.482C483.844 243.122 494.874 239.426 503.822 238.551C512.769 237.676 522.482 230.584 522.482 230.584C522.482 230.584 533.179 226.756 535.054 220.321C536.928 213.885 532.791 178.513 532.791 178.513C532.791 178.513 529.599 162.054 520.766 166.505Z" fill="white"/>
<path opacity="0.1" d="M520.542 218.921C520.542 218.921 512.343 217.28 515.196 220.014C518.049 222.748 518.033 225.143 521.526 225.034C525.018 224.924 520.542 218.921 520.542 218.921Z" fill="black"/>
<path opacity="0.1" d="M534.398 277.745C534.398 277.745 530.692 280.255 537.781 286.04C544.87 291.825 534.398 277.745 534.398 277.745Z" fill="black"/>
<path opacity="0.1" d="M527.325 298.376C527.325 298.704 526.013 310.406 530.921 313.331C535.83 316.256 527.325 298.376 527.325 298.376Z" fill="black"/>
<path d="M449.393 206.667C445.435 206.804 436.887 208.012 441.319 216.285C445.238 223.607 451.825 218.713 455.531 215C454.627 211.539 452.43 208.556 449.393 206.667V206.667Z" fill="#FFB0B1"/>
<path d="M455.58 214.935L455.744 214.766L455.58 214.935Z" fill="#FFB0B1"/>
<path opacity="0.1" d="M519.454 156.04C515.256 158.91 511.736 161.333 511.047 161.836C509.167 163.23 505.582 171.416 503.27 175.593C501.428 178.956 495.442 179.82 493.185 180.033L493.475 177.534C498.607 175.238 502.537 167.922 502.537 167.922L512.682 150.129L516.174 153.306C516.174 153.306 517.486 154.399 519.454 156.04Z" fill="black"/>
<path d="M519.454 155.712C515.256 158.582 511.736 161.005 511.047 161.513C509.167 162.902 505.582 171.088 503.27 175.265C501.428 178.628 495.442 179.492 493.185 179.705L493.475 177.206C498.607 174.91 502.537 167.594 502.537 167.594L512.682 149.801L516.174 152.967C516.174 152.967 517.486 154.049 519.454 155.712Z" fill="#DCE7FF"/>
<path d="M511.375 141.78C511.378 145.062 510.383 148.268 508.522 150.971C506.325 154.168 503.055 156.471 499.306 157.462C495.556 158.453 491.576 158.067 488.087 156.374C484.598 154.68 481.831 151.792 480.289 148.232C478.747 144.673 478.531 140.678 479.681 136.973C480.831 133.268 483.271 130.098 486.557 128.038C489.844 125.979 493.759 125.166 497.594 125.748C501.428 126.329 504.927 128.266 507.455 131.208C509.984 134.149 511.375 137.9 511.375 141.78V141.78Z" fill="#FFB0B1"/>
<path opacity="0.1" d="M539.667 196.322C537.447 194.956 535.639 193.013 534.436 190.701C533.523 188.896 532.916 186.813 531.359 185.533C529.954 184.385 528.079 184.106 526.33 183.592C520.58 181.892 515.759 176.643 515.579 170.65C515.491 167.828 516.371 165.012 515.972 162.218C515.745 160.637 515.117 159.14 514.147 157.871C513.665 157.264 513.137 156.696 512.567 156.17C511.802 155.449 510.998 154.749 510.299 153.983C509.858 153.509 509.473 152.986 509.151 152.425C508.891 151.965 508.68 151.48 508.522 150.976C507.429 147.629 508.424 143.66 507.221 140.275L507.156 140.089C506.702 138.886 505.778 137.683 504.494 137.59C503.209 137.497 502.111 138.564 500.886 139.039C498.323 140.034 495.557 138.339 493.42 136.612C491.283 134.884 488.872 132.91 486.156 133.292C484.358 133.549 482.937 134.774 481.28 135.409C480.906 135.553 480.521 135.665 480.127 135.742C481.529 132.245 484.104 129.346 487.41 127.542C490.716 125.739 494.547 125.143 498.245 125.858C501.942 126.573 505.275 128.554 507.671 131.46C510.068 134.366 511.377 138.017 511.375 141.784C511.377 142.922 511.258 144.056 511.02 145.169C511.047 145.245 511.075 145.317 511.108 145.393C511.742 147.033 512.458 148.718 513.086 150.172L516.174 152.972C516.174 152.972 517.486 154.065 519.454 155.706C523.734 159.315 531.129 165.668 534.944 169.556C538.3 172.99 539.35 186.299 539.667 196.322Z" fill="black"/>
<path d="M481.089 125.419C481.871 123.827 482.259 122.045 483.193 120.536C484.565 118.348 486.959 116.949 489.419 116.101C495.841 113.887 509.413 110.671 513.469 116.101C514.267 117.195 514.928 118.409 516.032 119.163C516.874 119.737 517.891 119.983 518.815 120.415C521.4 121.629 523.051 124.276 523.931 126.977C524.811 129.678 525.073 132.576 525.718 135.359C526.543 138.93 527.992 142.315 529.435 145.677C531.135 149.647 532.938 153.764 536.218 156.57C540.694 160.397 541.684 165.816 545.838 170.015C550.757 175.002 550.598 183.231 548.062 189.766C547.729 190.624 547.352 191.521 547.483 192.434C547.614 193.347 548.292 194.178 548.931 194.905L551.621 197.94C545.258 199.477 538.06 196.152 535.097 190.318C534.185 188.513 533.578 186.436 532.015 185.151C530.615 184.002 528.735 183.729 526.991 183.215C521.241 181.509 516.42 176.254 516.24 170.261C516.153 167.445 517.033 164.629 516.634 161.841C516.412 160.249 515.781 158.742 514.803 157.466C513.299 155.503 511.031 154.186 509.807 151.998C507.735 148.34 509.309 143.589 507.817 139.663C507.358 138.46 506.44 137.257 505.155 137.164C503.871 137.071 502.772 138.137 501.542 138.613C498.984 139.608 496.219 137.918 494.081 136.185C491.944 134.452 489.534 132.483 486.812 132.871C485.014 133.123 483.598 134.348 481.942 134.987C480.717 135.458 478.236 135.879 477.165 134.845C474.902 132.762 480.144 127.365 481.089 125.419Z" fill="#591D4B"/>
<path opacity="0.1" d="M536.617 188.514C535.699 186.71 535.097 184.632 533.534 183.352C532.135 182.204 530.255 181.925 528.505 181.411C522.761 179.711 517.94 174.456 517.754 168.463C517.667 165.647 518.547 162.826 518.153 160.037C517.924 158.455 517.294 156.958 516.322 155.69C514.813 153.727 512.545 152.409 511.326 150.222C509.255 146.569 510.829 141.818 509.331 137.886C508.878 136.689 507.954 135.486 506.675 135.387C505.396 135.289 504.286 136.366 503.062 136.842C500.504 137.837 497.733 136.142 495.601 134.414C493.469 132.686 491.048 130.712 488.331 131.095C486.533 131.352 485.112 132.577 483.461 133.211C482.237 133.681 479.75 134.108 478.679 133.074C476.427 130.887 481.669 125.501 482.609 123.565C483.39 121.969 483.778 120.192 484.718 118.683C484.768 118.601 484.822 118.519 484.877 118.437C484.174 119.019 483.567 119.709 483.079 120.482C482.144 121.991 481.756 123.762 480.974 125.364C480.029 127.3 474.787 132.702 477.044 134.873C478.138 135.912 480.597 135.486 481.822 135.015C483.461 134.376 484.893 133.151 486.692 132.899C489.425 132.511 491.83 134.485 493.961 136.213C496.093 137.941 498.881 139.636 501.428 138.641C502.652 138.165 503.723 137.093 505.035 137.192C506.347 137.29 507.221 138.488 507.697 139.691C509.189 143.617 507.615 148.368 509.687 152.026C510.911 154.175 513.179 155.52 514.682 157.494C515.66 158.769 516.291 160.277 516.513 161.869C516.912 164.657 516.032 167.473 516.12 170.289C516.3 176.304 521.121 181.537 526.871 183.243C528.604 183.757 530.495 184.03 531.894 185.179C533.463 186.464 534.081 188.541 534.977 190.346C537.94 196.18 545.138 199.505 551.5 197.968L550.232 196.536C544.717 196.618 539.137 193.479 536.617 188.514Z" fill="black"/>
<path opacity="0.1" d="M498.935 163.558C498.219 164.651 496.169 170.251 494.459 175.139C492.857 174.516 491.403 170.54 491.403 170.54L499.941 158.391C500.815 159.594 500.241 161.589 498.935 163.558Z" fill="black"/>
<path d="M499.263 163.23C498.547 164.324 496.497 169.923 494.786 174.811C493.185 174.193 491.731 170.213 491.731 170.213L500.269 158.068C501.143 159.266 500.569 161.267 499.263 163.23Z" fill="#DCE7FF"/>
<path d="M449.622 219.091L444.889 204.158C444.833 203.983 444.812 203.799 444.827 203.616C444.842 203.433 444.894 203.255 444.978 203.092C445.062 202.928 445.178 202.784 445.318 202.665C445.459 202.547 445.621 202.458 445.796 202.402V202.402C446.148 202.292 446.53 202.326 446.857 202.496C447.185 202.666 447.432 202.959 447.545 203.31L452.278 218.227L451.808 221.349L449.622 219.091Z" fill="#BE8B87"/>
<path opacity="0.1" d="M445.337 202.845C445.69 202.733 446.073 202.766 446.402 202.936C446.73 203.106 446.978 203.4 447.091 203.753L451.825 218.669L451.47 221.01L451.814 221.37L452.284 218.248L447.523 203.332C447.41 202.98 447.163 202.688 446.835 202.518C446.508 202.348 446.126 202.314 445.774 202.424V202.424C445.478 202.52 445.222 202.713 445.047 202.971C445.14 202.921 445.237 202.879 445.337 202.845V202.845Z" fill="white"/>
<path d="M449.622 219.091L452.279 218.249L451.89 220.808L451.808 221.371L451.032 220.562L449.622 219.091Z" fill="#EFC8C4"/>
<path d="M451.032 220.561C451.078 220.503 451.136 220.454 451.202 220.419C451.24 220.395 451.285 220.382 451.33 220.382C451.376 220.382 451.42 220.395 451.459 220.419C451.496 220.464 451.527 220.514 451.552 220.567C451.588 220.627 451.637 220.678 451.696 220.717C451.754 220.756 451.821 220.781 451.89 220.791L451.808 221.338L451.032 220.561Z" fill="#727A9C"/>
<path d="M444.861 209.461C444.861 209.461 454.355 209.406 452.12 213.447C449.884 217.488 446.392 217.975 446.392 217.975L444.861 209.461Z" fill="#FFB0B1"/>
<path d="M385.814 28.1162H385.404C369.093 28.1162 354.669 36.7501 346.372 49.4905C338.075 36.7501 323.65 28.1162 307.34 28.1162H306.93C294.69 28.2329 282.99 33.1774 274.374 41.8751C265.757 50.5729 260.92 62.3211 260.913 74.5666C260.913 89.7731 267.571 111.35 280.552 129.104C305.285 162.935 346.372 192.533 346.372 192.533C346.372 192.533 387.459 162.94 412.186 129.104C425.173 111.35 431.825 89.7731 431.825 74.5666C431.819 62.322 426.982 50.5746 418.367 41.877C409.751 33.1794 398.053 28.2343 385.814 28.1162V28.1162ZM379.949 131.707C378.091 131.7 376.279 131.131 374.751 130.075C373.222 129.019 372.048 127.526 371.384 125.791H361.633C360.99 125.787 360.366 125.582 359.845 125.206C359.325 124.829 358.935 124.3 358.73 123.691L355.735 114.663L346.257 147.794C346.073 148.431 345.686 148.992 345.156 149.391C344.626 149.791 343.98 150.007 343.316 150.008H343.125C342.433 149.975 341.773 149.705 341.255 149.243C340.738 148.781 340.395 148.156 340.283 147.471L330.515 88.7013L323.377 123.478C323.213 124.138 322.833 124.725 322.297 125.144C321.761 125.563 321.1 125.791 320.42 125.791H306.684C306.273 125.808 305.861 125.742 305.476 125.596C305.09 125.451 304.738 125.229 304.441 124.943C304.143 124.658 303.906 124.315 303.745 123.936C303.583 123.557 303.5 123.149 303.5 122.737C303.5 122.324 303.583 121.916 303.745 121.537C303.906 121.158 304.143 120.815 304.441 120.53C304.738 120.245 305.09 120.023 305.476 119.877C305.861 119.732 306.273 119.665 306.684 119.683H318.015L328.127 72.9262C328.293 72.235 328.694 71.6228 329.261 71.1945C329.828 70.7661 330.526 70.5482 331.236 70.5779C331.947 70.6076 332.624 70.8831 333.154 71.3573C333.683 71.8315 334.032 72.475 334.139 73.1778L344.114 133.129L352.608 103.487C352.785 102.862 353.159 102.312 353.674 101.918C354.19 101.524 354.819 101.307 355.467 101.3H355.527C356.17 101.3 356.796 101.503 357.316 101.88C357.836 102.257 358.224 102.789 358.424 103.399L363.841 119.699H371.263C371.791 118.095 372.752 116.668 374.039 115.576C375.326 114.484 376.89 113.768 378.558 113.509C380.226 113.25 381.933 113.456 383.491 114.106C385.049 114.756 386.397 115.824 387.386 117.192C388.376 118.56 388.969 120.175 389.099 121.858C389.229 123.542 388.891 125.229 388.123 126.733C387.356 128.237 386.187 129.499 384.748 130.381C383.308 131.262 381.653 131.729 379.965 131.729L379.949 131.707Z" fill="#F2994A"/>
</g>
<defs>
<linearGradient id="paint0_linear" x1="194.765" y1="423.696" x2="194.765" y2="87.2301" gradientUnits="userSpaceOnUse">
<stop stop-color="#808080" stop-opacity="0.25"/>
<stop offset="0.54" stop-color="#808080" stop-opacity="0.12"/>
<stop offset="1" stop-color="#808080" stop-opacity="0.1"/>
</linearGradient>
<linearGradient id="paint1_linear" x1="122007" y1="253868" x2="122007" y2="81157.2" gradientUnits="userSpaceOnUse">
<stop stop-color="#808080" stop-opacity="0.25"/>
<stop offset="0.54" stop-color="#808080" stop-opacity="0.12"/>
<stop offset="1" stop-color="#808080" stop-opacity="0.1"/>
</linearGradient>
<clipPath id="clip0">
<rect width="604" height="428" fill="white"/>
</clipPath>
</defs>
</svg>
