<svg width="734" height="511" viewBox="0 0 734 511" fill="none" xmlns="http://www.w3.org/2000/svg">
<path d="M613.284 78.5739L556.662 79.1257C554 66.021 545.058 31.6366 553.111 22.2579C553.478 18.728 555.192 15.4757 557.897 13.1781C560.601 10.8804 564.087 9.7144 567.629 9.9228V9.9228C576.405 -3.81713 591.023 -1.75416 600.903 6.82702C610.846 10.2585 614.595 16.3548 613.284 24.6277C620.648 31.0745 622.006 38.9178 618.701 47.846L613.284 78.5739Z" fill="#2F2E41"/>
<path d="M607.833 113.461L566.982 107.804L558.811 95.8606C570.066 88.3938 574.049 77.9647 568.867 63.8024L597.149 63.1738C595.824 75.7855 599.994 85.5504 611.604 91.4605L607.833 113.461Z" fill="#FFB9B9"/>
<path d="M557.323 481.993L555.761 503.351C555.691 504.318 555.827 505.289 556.163 506.198C556.498 507.108 557.023 507.935 557.704 508.625C558.385 509.315 559.206 509.851 560.111 510.197C561.016 510.544 561.985 510.693 562.952 510.634L573.921 509.97C574.429 509.939 574.925 509.796 575.372 509.552C575.818 509.308 576.206 508.969 576.507 508.558C576.808 508.148 577.015 507.676 577.113 507.176C577.211 506.676 577.198 506.161 577.075 505.667L570.986 481.31L557.323 481.993Z" fill="#E6E6E6"/>
<path d="M592.834 481.31L586.745 505.667C586.622 506.161 586.608 506.676 586.707 507.176C586.805 507.676 587.012 508.148 587.313 508.558C587.614 508.969 588.001 509.308 588.448 509.552C588.895 509.796 589.391 509.939 589.899 509.97L600.867 510.634C601.835 510.693 602.804 510.544 603.709 510.197C604.614 509.851 605.434 509.315 606.115 508.625C606.797 507.935 607.322 507.108 607.657 506.198C607.992 505.289 608.129 504.318 608.058 503.351L606.496 481.993L592.834 481.31Z" fill="#E6E6E6"/>
<path d="M607.205 484.958L592.402 483.473L577.666 325.925L572.097 482.965L557.554 482.444L533.044 264.951H626.687L607.205 484.958Z" fill="#F2994A"/>
<path d="M584.579 73.8594C600.199 73.8594 612.861 61.195 612.861 45.5728C612.861 29.9505 600.199 17.2861 584.579 17.2861C568.96 17.2861 556.297 29.9505 556.297 45.5728C556.297 61.195 568.96 73.8594 584.579 73.8594Z" fill="#FFB9B9"/>
<path d="M640.514 269.98L526.13 271.237C543.105 206.604 553.26 146.565 535.558 105.289L563.839 91.4603C577.476 105.686 592.663 104.22 609.09 90.2031L636.115 97.1176C631.486 151.244 633.561 209.213 640.514 269.98Z" fill="#F2994A"/>
<path d="M494.706 203.35L565.725 231.636L581.603 236.307C582.313 236.516 583.058 236.579 583.793 236.493C584.528 236.407 585.239 236.172 585.881 235.805C586.524 235.437 587.085 234.943 587.532 234.352C587.979 233.762 588.302 233.088 588.481 232.369C588.796 231.11 588.655 229.779 588.082 228.614C587.51 227.449 586.543 226.524 585.354 226.004L568.867 220.95L519.217 192.035L529.587 164.691L507.904 153.062L494.706 203.35Z" fill="#FFB9B9"/>
<path d="M495.335 151.805C508.847 157.077 519.594 166.075 528.016 178.206L554.412 139.862L535.558 105.289L495.335 151.805Z" fill="#F2994A"/>
<path d="M616.454 40.9881C604.976 38.03 593.69 37.6239 582.719 41.376C575.731 44.7612 567.339 44.4493 558.005 41.6601V13.4385L608.392 14.7824L616.454 40.9881Z" fill="#2F2E41"/>
<path d="M565.489 170.392C563.268 170.394 561.139 171.278 559.569 172.848C557.998 174.419 557.115 176.548 557.113 178.769L560.419 247.993C560.421 250.214 561.305 252.343 562.875 253.914C564.445 255.484 566.574 256.368 568.795 256.37H606.597C608.817 256.368 610.946 255.484 612.517 253.914C614.087 252.343 614.97 250.214 614.973 247.993L618.279 178.769C618.277 176.548 617.393 174.419 615.823 172.848C614.253 171.278 612.124 170.394 609.903 170.392H565.489Z" fill="#3F3D56"/>
<path d="M672.742 198.12L610.84 222.772L606.17 224.632C606.021 224.69 605.872 224.74 605.715 224.79L590.068 229.394C588.068 229.981 585.299 227.286 583.679 225.426C582.877 224.53 582.422 223.375 582.398 222.173C582.374 220.97 582.781 219.798 583.546 218.87C583.763 218.621 584.001 218.391 584.257 218.184C584.86 217.715 585.57 217.402 586.324 217.275L601.954 214.199C602.515 214.089 603.054 213.888 603.55 213.604L610.84 209.355L648.689 187.314C649.742 186.702 650.543 185.737 650.95 184.589C651.357 183.441 651.344 182.187 650.913 181.048L643.688 161.992C643.245 160.826 643.242 159.539 643.678 158.37C644.115 157.202 644.962 156.232 646.061 155.643L658.029 149.227C658.713 148.86 659.472 148.653 660.247 148.621C661.023 148.59 661.795 148.735 662.507 149.045C663.218 149.356 663.85 149.823 664.354 150.414C664.859 151.004 665.223 151.7 665.419 152.452L675.809 192.035C676.128 193.249 675.993 194.537 675.428 195.658C674.863 196.779 673.908 197.654 672.742 198.12V198.12Z" fill="#FFB9B9"/>
<path d="M676.338 144.89C662.826 150.162 652.079 159.16 643.657 171.291L617.26 132.947L636.115 97.1172L676.338 144.89Z" fill="#F2994A"/>
<path d="M603.401 70.7495C591.029 75.8968 578.055 75.6878 564.552 70.7495C568.481 64.0415 562.608 58.7878 559.592 52.0162L610.014 50.5176C606.158 56.4002 600.468 63.3504 603.401 70.7495Z" fill="white"/>
<path d="M609.48 51.637L608.894 51.0525L609.721 50.2258L614.659 44.4619L615.287 44.9993L610.328 50.7863L609.48 51.637Z" fill="white"/>
<path d="M556.137 48.1331L555.608 48.7686L560.568 52.9021L561.097 52.2667L556.137 48.1331Z" fill="white"/>
<path d="M610.904 56.4972L602.223 70.1367L602.92 70.5808L611.602 56.9412L610.904 56.4972Z" fill="white"/>
<path d="M557.048 56.4965L556.351 56.9404L565.03 70.5813L565.727 70.1374L557.048 56.4965Z" fill="white"/>
<path d="M612.493 208.186V223.163L607.28 225.239C607.114 225.304 606.948 225.359 606.773 225.415L589.307 230.555C587.074 231.21 583.983 228.201 582.175 226.125C581.279 225.124 580.772 223.836 580.745 222.493C580.718 221.151 581.173 219.843 582.027 218.807C582.268 218.529 582.534 218.272 582.821 218.041C583.494 217.517 584.286 217.168 585.127 217.026L602.575 213.593C603.201 213.47 603.802 213.246 604.355 212.929L612.493 208.186Z" fill="white"/>
<path d="M620.048 154.763H617.061C617.061 112.509 608.362 83.0627 599.886 83.0627L599.139 80.0752C606.741 80.0752 611.588 92.3305 614.315 102.612C618.012 116.55 620.048 135.071 620.048 154.763Z" fill="#3F3D56"/>
<path d="M551.347 144.307H548.36C548.36 105.609 557.119 81.5693 570.016 81.5693L569.269 84.5569C560.348 84.5569 551.347 103.032 551.347 144.307Z" fill="#3F3D56"/>
<path d="M618.554 162.979C622.679 162.979 626.022 159.635 626.022 155.51C626.022 151.385 622.679 148.041 618.554 148.041C614.43 148.041 611.087 151.385 611.087 155.51C611.087 159.635 614.43 162.979 618.554 162.979Z" fill="#3F3D56"/>
<path d="M539.399 162.232H536.412C536.412 151.525 542.442 142.813 549.853 142.813V145.801C544.089 145.801 539.399 153.172 539.399 162.232Z" fill="#3F3D56"/>
<path d="M563.295 162.232H560.308C560.308 153.172 555.618 145.801 549.853 145.801V142.813C557.265 142.813 563.295 151.525 563.295 162.232Z" fill="#3F3D56"/>
<path d="M561.801 165.966C563.451 165.966 564.788 164.629 564.788 162.979C564.788 161.329 563.451 159.991 561.801 159.991C560.152 159.991 558.814 161.329 558.814 162.979C558.814 164.629 560.152 165.966 561.801 165.966Z" fill="#3F3D56"/>
<path d="M537.905 165.966C539.555 165.966 540.892 164.629 540.892 162.979C540.892 161.329 539.555 159.991 537.905 159.991C536.256 159.991 534.918 161.329 534.918 162.979C534.918 164.629 536.256 165.966 537.905 165.966Z" fill="#3F3D56"/>
<path d="M177.938 62.5805L125.478 71.4657C124.182 71.6869 122.85 71.4193 121.74 70.7149C120.63 70.0105 119.821 68.9192 119.469 67.6524C115.679 53.9706 107.755 36.1223 115.448 27.1625C115.84 23.3931 117.67 19.9202 120.558 17.4666C123.446 15.0131 127.168 13.768 130.951 13.9905C140.322 -0.681555 155.932 1.52136 166.482 10.6847C177.1 14.349 181.103 20.8589 179.703 29.693C184.29 33.7088 186.695 38.232 187.202 43.1966C187.442 45.9593 187.091 48.7415 186.171 51.3576C185.251 53.9737 183.784 56.3635 181.867 58.3675L177.938 62.5805Z" fill="#2F2E41"/>
<path d="M169.782 103.887L129.114 101.495C133.099 92.3457 134.691 83.5354 133.101 75.1758H163.402C163.334 81.5943 166.527 92.6972 169.782 103.887Z" fill="#9F616A"/>
<path d="M120.829 479.736L119.161 502.543C119.085 503.575 119.231 504.612 119.589 505.583C119.947 506.554 120.508 507.438 121.235 508.174C121.963 508.911 122.839 509.483 123.806 509.853C124.772 510.223 125.807 510.382 126.84 510.32L138.552 509.61C139.095 509.577 139.624 509.425 140.101 509.165C140.578 508.904 140.993 508.542 141.314 508.103C141.635 507.665 141.856 507.161 141.961 506.627C142.066 506.093 142.052 505.543 141.92 505.016L135.418 479.006L120.829 479.736Z" fill="#E6E6E6"/>
<path d="M158.748 479.006L152.246 505.016C152.115 505.543 152.1 506.093 152.205 506.627C152.31 507.161 152.531 507.665 152.852 508.103C153.174 508.542 153.588 508.904 154.065 509.165C154.542 509.425 155.071 509.577 155.614 509.61L167.327 510.32C168.36 510.382 169.394 510.223 170.361 509.853C171.327 509.483 172.204 508.911 172.931 508.174C173.658 507.438 174.219 506.554 174.577 505.583C174.935 504.612 175.081 503.575 175.006 502.543L173.338 479.736L158.748 479.006Z" fill="#E6E6E6"/>
<path d="M174.094 482.903L158.288 481.316L142.551 313.08L136.604 480.774L121.075 480.217L94.9017 247.97H194.898L174.094 482.903Z" fill="#F2994A"/>
<path d="M149.051 84.8575C165.73 84.8575 179.251 71.334 179.251 54.6519C179.251 37.9698 165.73 24.4463 149.051 24.4463C132.372 24.4463 118.85 37.9698 118.85 54.6519C118.85 71.334 132.372 84.8575 149.051 84.8575Z" fill="#9F616A"/>
<path d="M183.088 40.2223C170.831 38.0873 158.78 37.7941 147.065 40.5022C139.602 42.9456 130.64 42.7205 120.674 40.7073V20.3379L174.479 21.3079L183.088 40.2223Z" fill="#2F2E41"/>
<path d="M169.149 78.8886C155.938 84.3851 142.084 84.1619 127.665 78.8886C131.861 71.7255 125.589 66.1155 122.369 58.8845L176.211 57.2842C172.093 63.5659 166.018 70.9875 169.149 78.8886Z" fill="white"/>
<path d="M118.662 54.7591L118.132 55.3945L123.428 59.8083L123.957 59.1728L118.662 54.7591Z" fill="white"/>
<path d="M177.186 63.683L167.916 78.248L168.614 78.6921L177.884 64.127L177.186 63.683Z" fill="white"/>
<path d="M119.627 63.683L118.93 64.127L128.197 78.6934L128.895 78.2495L119.627 63.683Z" fill="white"/>
<path d="M91.6353 192.415L68.5104 178.059L88.2319 120.289C90.4315 114.328 94.6445 109.323 100.143 106.139L106.786 102.292L107.364 160.571L91.6353 192.415Z" fill="#F2994A"/>
<path d="M191.591 220.472L188.17 191.163C187.987 175.693 190.619 160.736 196.894 146.955L200.083 103.887L164.997 89.5312C164.889 90.2464 164.798 90.961 164.695 91.676L148.251 99.8994L132.214 96.254L132.303 91.1264L100.407 105.482C110.955 154.53 105.202 205.464 87.0627 265.625L129.083 277.117L129.433 256.937L166.882 254.261C167.268 260.809 167.578 267.24 167.758 273.528C188.889 281.309 189.615 281.18 208.869 270.039C201.201 253.916 195.13 237.138 191.591 220.472Z" fill="#F2994A"/>
<path d="M245.535 185.237L224.006 178.059L189.567 137.961L200.083 103.888L247.928 170.882L245.535 185.237Z" fill="#F2994A"/>
<path d="M178.061 216.281C178.413 217.827 179.364 219.17 180.705 220.016C182.046 220.862 183.668 221.142 185.215 220.794L203.491 216.654L200.849 204.986L182.573 209.125C181.026 209.476 179.681 210.426 178.835 211.768C177.989 213.11 177.71 214.733 178.061 216.28V216.281Z" fill="#E6E6E6"/>
<path d="M194.501 202.784L204.868 221.925C222.304 217.061 237.415 201.727 251.915 183.643L247.928 170.882L223.208 177.262L194.501 202.784Z" fill="#F2994A"/>
<path d="M59.34 142.742L79.2406 146.296L124.728 210.985L100.563 205.298L59.34 142.742Z" fill="#E6E6E6"/>
<path d="M55.8102 141.95C55.507 141.955 55.2105 142.041 54.9519 142.199C54.6932 142.358 54.4818 142.583 54.3399 142.851C54.1979 143.119 54.1306 143.42 54.145 143.723C54.1593 144.026 54.2548 144.32 54.4214 144.573L96.9399 209.095C97.1772 209.456 97.5437 209.712 97.964 209.811L117.747 214.466C118.08 214.544 118.43 214.52 118.749 214.395C119.068 214.27 119.342 214.051 119.534 213.767C119.726 213.483 119.827 213.148 119.823 212.805C119.82 212.463 119.713 212.129 119.516 211.849L72.8331 145.46C72.7065 145.279 72.5455 145.125 72.3593 145.006C72.1731 144.888 71.9653 144.807 71.7479 144.769L56.1291 141.979C56.0239 141.96 55.9172 141.95 55.8102 141.95Z" fill="#3F3D56"/>
<path d="M82.3335 188.083L83.5152 199.988L102.162 198.136C103.741 197.98 105.192 197.202 106.198 195.975C107.203 194.748 107.68 193.172 107.523 191.593C107.367 190.014 106.589 188.563 105.362 187.557C104.136 186.552 102.56 186.075 100.981 186.231L82.3335 188.083Z" fill="#E6E6E6"/>
<path d="M66.1186 186.704C66.1457 190.764 67.7757 194.648 70.6536 197.51C73.5314 200.373 77.4237 201.981 81.4824 201.986H84.5486L86.7808 183.381L68.2982 176.726L66.1186 186.704Z" fill="#F2994A"/>
<path d="M174.737 59.3418L174.153 58.7573L175.036 57.8743L180.31 51.7178L180.938 52.2551L175.642 58.4349L174.737 59.3418Z" fill="white"/>
<path d="M734 509.347H0V511H734V509.347Z" fill="#3F3D56"/>
<path d="M280.209 508.519H453.791V297.941C453.791 286.79 442.809 277.719 429.312 277.719H304.688C291.19 277.719 280.209 286.79 280.209 297.941V508.519Z" fill="#E6E6E6"/>
<path d="M293.435 499.812H440.565V321.321C440.565 311.87 431.257 304.181 419.817 304.181H314.183C302.742 304.181 293.435 311.87 293.435 321.321V499.812Z" fill="white"/>
<path d="M278.898 261.331C274.608 261.331 271.117 264.215 271.117 267.759V286.314C271.117 289.858 274.608 292.742 278.898 292.742H455.102C459.392 292.742 462.883 289.858 462.883 286.314V267.759C462.883 264.215 459.392 261.331 455.102 261.331H278.898Z" fill="#3F3D56"/>
<path d="M315.075 476.925C313.061 476.931 311.131 477.734 309.706 479.158C308.282 480.583 307.479 482.513 307.473 484.528V484.528C307.479 486.543 308.282 488.473 309.706 489.898C311.131 491.322 313.061 492.125 315.075 492.131H329.304V476.925H315.075Z" fill="#3F3D56"/>
<path d="M342.363 476.925H328.524V492.131H342.363C344.378 492.125 346.308 491.322 347.732 489.898C349.156 488.473 349.959 486.543 349.965 484.528V484.528C349.959 482.513 349.156 480.583 347.732 479.158C346.308 477.734 344.378 476.931 342.363 476.925V476.925Z" fill="#F2994A"/>
<path opacity="0.2" d="M347.324 478.787C348.523 480.162 349.184 481.924 349.186 483.748V483.748C349.18 485.763 348.377 487.693 346.952 489.118C345.528 490.543 343.598 491.346 341.584 491.351H328.524V492.131H342.363C344.378 492.125 346.308 491.322 347.732 489.898C349.156 488.473 349.959 486.543 349.965 484.528C349.963 483.438 349.726 482.36 349.271 481.369C348.815 480.379 348.151 479.498 347.324 478.787V478.787Z" fill="black"/>
<path d="M379.284 362.402C377.898 360.94 375.99 360.086 373.977 360.027C371.963 359.967 370.008 360.707 368.538 362.085V362.085C367.077 363.471 366.223 365.379 366.163 367.393C366.104 369.407 366.844 371.362 368.221 372.832L377.981 383.188L389.044 372.758L379.284 362.402Z" fill="#3F3D56"/>
<path d="M398.002 382.263L388.509 372.191L377.446 382.622L386.939 392.694C388.325 394.156 390.233 395.01 392.246 395.069C394.26 395.129 396.215 394.389 397.685 393.011V393.011C399.146 391.625 400 389.716 400.06 387.703C400.119 385.689 399.379 383.733 398.002 382.263V382.263Z" fill="#F2994A"/>
<path opacity="0.2" d="M400.05 387.15C399.872 388.965 399.043 390.655 397.717 391.908V391.908C396.248 393.285 394.292 394.025 392.279 393.966C390.266 393.906 388.358 393.052 386.972 391.59L378.014 382.086L377.446 382.621L386.939 392.693C388.325 394.155 390.233 395.009 392.246 395.068C394.26 395.128 396.215 394.388 397.685 393.01C398.477 392.261 399.098 391.349 399.506 390.338C399.915 389.327 400.1 388.239 400.05 387.15V387.15Z" fill="black"/>
<path d="M338.782 386.378C337.396 384.916 335.488 384.062 333.474 384.002C331.461 383.943 329.506 384.683 328.036 386.06V386.06C326.574 387.447 325.72 389.355 325.661 391.369C325.602 393.383 326.341 395.338 327.719 396.808L337.479 407.164L348.542 396.733L338.782 386.378Z" fill="#3F3D56"/>
<path d="M357.5 406.238L348.007 396.166L336.944 406.596L346.437 416.668C347.823 418.13 349.731 418.984 351.744 419.044C353.758 419.103 355.713 418.363 357.182 416.986V416.986C358.644 415.599 359.498 413.691 359.557 411.677C359.617 409.664 358.877 407.708 357.5 406.238V406.238Z" fill="#F2994A"/>
<path opacity="0.2" d="M359.548 411.125C359.37 412.941 358.541 414.631 357.215 415.883V415.883C355.745 417.261 353.79 418.001 351.777 417.941C349.763 417.882 347.855 417.028 346.469 415.566L337.511 406.062L336.944 406.596L346.437 416.668C347.823 418.13 349.731 418.984 351.744 419.044C353.758 419.103 355.713 418.363 357.182 416.986V416.986C357.975 416.236 358.596 415.325 359.004 414.314C359.412 413.302 359.598 412.215 359.548 411.125Z" fill="black"/>
<path d="M379.284 408.699C377.898 407.237 375.99 406.383 373.977 406.324C371.963 406.264 370.008 407.004 368.538 408.382V408.382C367.077 409.768 366.223 411.676 366.163 413.69C366.104 415.704 366.844 417.659 368.221 419.129L377.981 429.485L389.044 419.055L379.284 408.699Z" fill="#3F3D56"/>
<path d="M398.002 428.559L388.509 418.487L377.446 428.918L386.939 438.99C388.325 440.452 390.233 441.306 392.246 441.365C394.26 441.424 396.215 440.685 397.685 439.307V439.307C399.146 437.921 400 436.012 400.06 433.999C400.119 431.985 399.379 430.029 398.002 428.559V428.559Z" fill="#F2994A"/>
<path opacity="0.2" d="M400.05 433.447C399.872 435.262 399.043 436.952 397.717 438.205C396.248 439.582 394.292 440.322 392.279 440.263C390.266 440.203 388.358 439.349 386.972 437.887L378.014 428.383L377.446 428.918L386.939 438.99C388.325 440.452 390.233 441.306 392.246 441.365C394.26 441.424 396.215 440.685 397.685 439.307V439.307C398.477 438.558 399.098 437.646 399.506 436.635C399.915 435.623 400.1 434.536 400.05 433.447V433.447Z" fill="black"/>
<path d="M403.993 456.208C405.437 454.804 406.268 452.886 406.303 450.871C406.338 448.857 405.574 446.911 404.179 445.457V445.457C402.776 444.012 400.857 443.182 398.843 443.147C396.829 443.112 394.883 443.875 393.43 445.271L383.196 455.158L393.758 466.095L403.993 456.208Z" fill="#3F3D56"/>
<path d="M384.365 475.17L394.319 465.554L383.757 454.616L373.803 464.232C372.358 465.636 371.527 467.555 371.492 469.569C371.457 471.583 372.221 473.53 373.616 474.983V474.983C375.02 476.428 376.938 477.259 378.952 477.294C380.966 477.329 382.912 476.565 384.365 475.17V475.17Z" fill="#F2994A"/>
<path opacity="0.2" d="M379.504 477.277C377.686 477.121 375.987 476.313 374.718 475.002V475.002C373.323 473.549 372.56 471.603 372.595 469.588C372.63 467.574 373.46 465.655 374.905 464.251L384.298 455.177L383.757 454.616L373.803 464.232C372.358 465.636 371.527 467.555 371.492 469.569C371.457 471.583 372.221 473.53 373.616 474.983V474.983C374.375 475.766 375.293 476.376 376.309 476.772C377.326 477.168 378.415 477.34 379.504 477.277Z" fill="black"/>
<path d="M349.439 432.233C350.883 430.83 351.714 428.911 351.749 426.897C351.784 424.882 351.02 422.936 349.625 421.483C348.222 420.038 346.303 419.207 344.289 419.172C342.275 419.137 340.329 419.901 338.876 421.296L328.642 431.183L339.204 442.12L349.439 432.233Z" fill="#3F3D56"/>
<path d="M329.811 451.194L339.765 441.578L329.203 430.641L319.248 440.257C317.804 441.66 316.973 443.579 316.938 445.593C316.903 447.608 317.667 449.554 319.062 451.007V451.007C320.465 452.452 322.384 453.283 324.398 453.318C326.412 453.353 328.358 452.589 329.811 451.194V451.194Z" fill="#F2994A"/>
<path opacity="0.2" d="M324.949 453.301C323.132 453.145 321.433 452.337 320.164 451.026C318.769 449.573 318.006 447.627 318.041 445.613C318.076 443.598 318.906 441.68 320.351 440.276L329.744 431.202L329.203 430.641L319.248 440.257C317.804 441.66 316.973 443.579 316.938 445.593C316.903 447.608 317.667 449.554 319.062 451.007V451.007C319.821 451.79 320.739 452.401 321.755 452.797C322.771 453.193 323.861 453.365 324.949 453.301V453.301Z" fill="black"/>
<path d="M427.137 403.298C428.582 401.894 429.412 399.975 429.447 397.961C429.482 395.947 428.719 394 427.323 392.547V392.547C425.92 391.102 424.001 390.271 421.987 390.237C419.973 390.202 418.028 390.965 416.575 392.36L406.34 402.247L416.902 413.185L427.137 403.298Z" fill="#3F3D56"/>
<path d="M407.509 422.259L417.463 412.643L406.901 401.706L396.947 411.322C395.502 412.726 394.671 414.645 394.636 416.659C394.601 418.673 395.365 420.62 396.76 422.073V422.073C398.164 423.518 400.082 424.348 402.096 424.383C404.11 424.418 406.056 423.655 407.509 422.259Z" fill="#F2994A"/>
<path opacity="0.2" d="M402.648 424.367C400.83 424.211 399.131 423.403 397.862 422.092V422.092C396.467 420.639 395.704 418.692 395.739 416.678C395.774 414.664 396.604 412.745 398.049 411.341L407.442 402.267L406.901 401.706L396.947 411.322C395.502 412.726 394.671 414.645 394.636 416.659C394.601 418.673 395.365 420.62 396.76 422.073V422.073C397.519 422.856 398.438 423.466 399.454 423.862C400.47 424.258 401.559 424.43 402.648 424.367Z" fill="black"/>
<path d="M409.867 463.262C408.481 461.801 406.573 460.947 404.56 460.887C402.546 460.828 400.591 461.568 399.122 462.945V462.945C397.66 464.331 396.806 466.24 396.747 468.254C396.687 470.267 397.427 472.223 398.804 473.693L408.564 484.048L419.628 473.618L409.867 463.262Z" fill="#3F3D56"/>
<path d="M428.585 483.123L419.093 473.051L408.03 483.481L417.522 493.553C418.908 495.015 420.816 495.869 422.83 495.928C424.843 495.988 426.798 495.248 428.268 493.87V493.87C429.73 492.484 430.584 490.576 430.643 488.562C430.703 486.548 429.963 484.593 428.585 483.123Z" fill="#F2994A"/>
<path opacity="0.2" d="M430.633 488.01C430.455 489.826 429.627 491.516 428.301 492.768V492.768C426.831 494.146 424.876 494.886 422.862 494.826C420.849 494.767 418.941 493.913 417.555 492.451L408.597 482.946L408.03 483.481L417.522 493.553C418.908 495.015 420.816 495.869 422.83 495.928C424.843 495.988 426.798 495.248 428.268 493.87V493.87C429.06 493.121 429.682 492.21 430.09 491.198C430.498 490.187 430.683 489.1 430.633 488.01V488.01Z" fill="black"/>
<path d="M356.14 462.435C354.754 460.973 352.846 460.119 350.832 460.06C348.819 460.001 346.864 460.74 345.394 462.118V462.118C343.932 463.504 343.079 465.413 343.019 467.426C342.96 469.44 343.7 471.396 345.077 472.866L354.837 483.221L365.9 472.791L356.14 462.435Z" fill="#3F3D56"/>
<path d="M374.858 482.296L365.365 472.224L354.302 482.654L363.795 492.726C365.181 494.188 367.089 495.042 369.102 495.101C371.116 495.161 373.071 494.421 374.541 493.043V493.043C376.002 491.657 376.856 489.749 376.916 487.735C376.975 485.721 376.235 483.766 374.858 482.296V482.296Z" fill="#F2994A"/>
<path opacity="0.2" d="M376.906 487.183C376.728 488.998 375.899 490.688 374.573 491.941V491.941C373.103 493.319 371.148 494.058 369.135 493.999C367.121 493.94 365.213 493.086 363.827 491.624L354.869 482.119L354.302 482.654L363.795 492.726C365.181 494.188 367.089 495.042 369.102 495.101C371.116 495.161 373.071 494.421 374.541 493.043V493.043C375.333 492.294 375.954 491.382 376.362 490.371C376.77 489.36 376.956 488.272 376.906 487.183Z" fill="black"/>
<path d="M371.263 435.159C371.264 437.687 370.391 440.137 368.793 442.095C367.195 444.054 364.969 445.399 362.493 445.905C361.046 446.197 359.555 446.197 358.108 445.905C355.632 445.399 353.407 444.053 351.808 442.095C350.21 440.137 349.337 437.687 349.337 435.159C349.337 432.632 350.21 430.182 351.808 428.224C353.407 426.265 355.632 424.92 358.108 424.414C359.555 424.121 361.046 424.121 362.493 424.414C364.969 424.919 367.195 426.265 368.793 428.223C370.391 430.181 371.264 432.631 371.263 435.159V435.159Z" fill="#F2994A"/>
<path opacity="0.2" d="M362.493 424.414V445.905C361.046 446.197 359.555 446.197 358.108 445.905V424.414C359.555 424.121 361.046 424.121 362.493 424.414Z" fill="black"/>
<path d="M376.223 391.343C376.223 393.871 375.351 396.321 373.752 398.279C372.154 400.237 369.929 401.583 367.452 402.088C366.005 402.381 364.514 402.381 363.067 402.088C360.591 401.582 358.366 400.237 356.768 398.278C355.17 396.32 354.297 393.87 354.297 391.343C354.297 388.815 355.17 386.365 356.768 384.407C358.366 382.449 360.591 381.103 363.067 380.597C364.514 380.305 366.005 380.305 367.452 380.597C369.929 381.103 372.154 382.448 373.752 384.407C375.351 386.365 376.223 388.815 376.223 391.343V391.343Z" fill="#F2994A"/>
<path opacity="0.2" d="M367.452 380.597V402.088C366.005 402.381 364.514 402.381 363.067 402.088V380.597C364.514 380.305 366.005 380.305 367.452 380.597Z" fill="black"/>
<path d="M376.223 454.174C376.223 456.702 375.351 459.152 373.752 461.11C372.154 463.068 369.929 464.414 367.452 464.919C366.005 465.212 364.514 465.212 363.067 464.919C360.591 464.413 358.366 463.068 356.768 461.11C355.17 459.151 354.297 456.701 354.297 454.174C354.297 451.646 355.17 449.196 356.768 447.238C358.366 445.28 360.591 443.934 363.067 443.428C364.514 443.136 366.005 443.136 367.452 443.428C369.929 443.934 372.154 445.28 373.752 447.238C375.351 449.196 376.223 451.646 376.223 454.174V454.174Z" fill="#F2994A"/>
<path opacity="0.2" d="M367.452 443.428V464.919C366.005 465.212 364.514 465.212 363.067 464.919V443.428C364.514 443.136 366.005 443.136 367.452 443.428Z" fill="black"/>
<path d="M403.5 484.763C403.5 487.29 402.628 489.741 401.029 491.699C399.431 493.657 397.206 495.003 394.729 495.508C393.282 495.801 391.791 495.801 390.344 495.508C387.868 495.002 385.643 493.656 384.045 491.698C382.447 489.74 381.574 487.29 381.574 484.763C381.574 482.235 382.447 479.785 384.045 477.827C385.643 475.869 387.868 474.523 390.344 474.017C391.791 473.725 393.282 473.725 394.729 474.017C397.206 474.523 399.431 475.868 401.029 477.827C402.628 479.785 403.5 482.235 403.5 484.763V484.763Z" fill="#F2994A"/>
<path opacity="0.2" d="M394.729 474.017V495.508C393.282 495.801 391.791 495.801 390.344 495.508V474.017C391.791 473.725 393.282 473.725 394.729 474.017Z" fill="black"/>
<path d="M427.596 428.483C429.416 430.237 430.574 432.566 430.875 435.075C431.175 437.585 430.6 440.122 429.245 442.256C428.451 443.501 427.417 444.575 426.202 445.414C424.119 446.846 421.606 447.514 419.087 447.306C416.569 447.098 414.199 446.027 412.38 444.272C410.56 442.518 409.402 440.189 409.102 437.68C408.801 435.17 409.377 432.634 410.731 430.499C411.525 429.254 412.559 428.181 413.774 427.342C415.856 425.909 418.37 425.24 420.888 425.448C423.407 425.656 425.777 426.728 427.596 428.483V428.483Z" fill="#F2994A"/>
<path opacity="0.2" d="M413.774 427.342L429.245 442.256C428.451 443.501 427.417 444.575 426.202 445.414L410.731 430.5C411.525 429.255 412.559 428.181 413.774 427.342V427.342Z" fill="black"/>
<path d="M430.902 452.458C432.722 454.211 433.881 456.54 434.181 459.05C434.482 461.56 433.906 464.096 432.551 466.23C431.758 467.476 430.723 468.549 429.508 469.388C427.426 470.82 424.912 471.489 422.394 471.281C419.875 471.073 417.506 470.001 415.686 468.247C413.867 466.493 412.709 464.164 412.408 461.654C412.108 459.145 412.683 456.608 414.037 454.474C414.831 453.229 415.866 452.155 417.08 451.316C419.163 449.884 421.676 449.215 424.195 449.423C426.713 449.631 429.083 450.703 430.902 452.458V452.458Z" fill="#F2994A"/>
<path opacity="0.2" d="M417.08 451.316L432.551 466.231C431.758 467.476 430.723 468.549 429.508 469.389L414.037 454.474C414.831 453.229 415.866 452.156 417.08 451.316V451.316Z" fill="black"/>
<path d="M332.54 458.245C334.36 459.998 335.518 462.327 335.818 464.837C336.119 467.347 335.543 469.884 334.189 472.018C333.395 473.263 332.36 474.336 331.145 475.175C329.063 476.607 326.55 477.276 324.031 477.068C321.513 476.86 319.143 475.788 317.323 474.034C315.504 472.28 314.346 469.951 314.045 467.441C313.745 464.932 314.32 462.395 315.674 460.261C316.468 459.016 317.503 457.942 318.718 457.103C320.8 455.671 323.313 455.002 325.832 455.21C328.351 455.418 330.72 456.49 332.54 458.245V458.245Z" fill="#F2994A"/>
<path opacity="0.2" d="M318.718 457.104L334.189 472.018C333.395 473.263 332.36 474.337 331.146 475.176L315.674 460.261C316.468 459.016 317.503 457.943 318.718 457.104V457.104Z" fill="black"/>
<path opacity="0.2" d="M297.154 261.331H293.021V291.92H297.154V261.331Z" fill="black"/>
<path opacity="0.2" d="M321.125 261.331H316.992V291.92H321.125V261.331Z" fill="black"/>
<path opacity="0.2" d="M345.096 261.331H340.963V291.92H345.096V261.331Z" fill="black"/>
<path opacity="0.2" d="M369.066 261.331H364.934V291.92H369.066V261.331Z" fill="black"/>
<path opacity="0.2" d="M393.037 261.331H388.904V291.92H393.037V261.331Z" fill="black"/>
<path opacity="0.2" d="M417.008 261.331H412.875V291.92H417.008V261.331Z" fill="black"/>
<path opacity="0.2" d="M440.979 261.331H436.846V291.92H440.979V261.331Z" fill="black"/>
</svg>
